<?xml version="1.0" encoding="utf-8"?>
<!-- Generator: Adobe Illustrator 14.0.0, SVG Export Plug-In . SVG Version: 6.00 Build 43363)  -->
<!DOCTYPE svg PUBLIC "-//W3C//DTD SVG 1.1//EN" "http://www.w3.org/Graphics/SVG/1.1/DTD/svg11.dtd">
<svg version="1.1" id="Layer_1" xmlns="http://www.w3.org/2000/svg" xmlns:xlink="http://www.w3.org/1999/xlink" x="0px" y="0px"
	 width="224px" height="312px" viewBox="0 0 224 312" enable-background="new 0 0 224 312" xml:space="preserve">
<g>
	<path fill="#E6E6E6" d="M41.191,211c-15.577,0-28.25-12.673-28.25-28.25s12.673-28.25,28.25-28.25s28.25,12.673,28.25,28.25
		S56.769,211,41.191,211L41.191,211z"/>
	<path fill="#4D4D4D" d="M41.191,156c14.773,0,26.75,11.977,26.75,26.75s-11.977,26.75-26.75,26.75s-26.75-11.977-26.75-26.75
		S26.418,156,41.191,156 M41.191,153c-16.404,0-29.75,13.346-29.75,29.75s13.346,29.75,29.75,29.75s29.75-13.346,29.75-29.75
		S57.596,153,41.191,153L41.191,153z"/>
</g>
<g>
	<path fill="#E6E6E6" d="M109.128,211c-15.577,0-28.25-12.673-28.25-28.25s12.673-28.25,28.25-28.25s28.25,12.673,28.25,28.25
		S124.705,211,109.128,211L109.128,211z"/>
	<path fill="#4D4D4D" d="M109.128,156c14.773,0,26.75,11.977,26.75,26.75s-11.977,26.75-26.75,26.75s-26.75-11.977-26.75-26.75
		S94.354,156,109.128,156 M109.128,153c-16.404,0-29.75,13.346-29.75,29.75s13.346,29.75,29.75,29.75s29.75-13.346,29.75-29.75
		S125.532,153,109.128,153L109.128,153z"/>
</g>
<g>
	<path fill="#E6E6E6" d="M177.065,211c-15.577,0-28.25-12.673-28.25-28.25s12.673-28.25,28.25-28.25s28.25,12.673,28.25,28.25
		S192.642,211,177.065,211L177.065,211z"/>
	<path fill="#4D4D4D" d="M177.065,156c14.773,0,26.75,11.977,26.75,26.75s-11.977,26.75-26.75,26.75s-26.75-11.977-26.75-26.75
		S162.292,156,177.065,156 M177.065,153c-16.404,0-29.75,13.346-29.75,29.75s13.346,29.75,29.75,29.75s29.75-13.346,29.75-29.75
		S193.469,153,177.065,153L177.065,153z"/>
</g>
<g>
	<path fill="#E6E6E6" d="M109.128,278.692c-15.577,0-28.25-12.673-28.25-28.25s12.673-28.25,28.25-28.25s28.25,12.673,28.25,28.25
		S124.705,278.692,109.128,278.692L109.128,278.692z"/>
	<path fill="#4D4D4D" d="M109.128,223.692c14.773,0,26.75,11.977,26.75,26.75s-11.977,26.75-26.75,26.75s-26.75-11.977-26.75-26.75
		S94.354,223.692,109.128,223.692 M109.128,220.692c-16.404,0-29.75,13.346-29.75,29.75s13.346,29.75,29.75,29.75
		s29.75-13.346,29.75-29.75S125.532,220.692,109.128,220.692L109.128,220.692z"/>
</g>
<g>
	<path fill="#E6E6E6" d="M177.065,278.692c-15.577,0-28.25-12.673-28.25-28.25s12.673-28.25,28.25-28.25s28.25,12.673,28.25,28.25
		S192.642,278.692,177.065,278.692L177.065,278.692z"/>
	<path fill="#4D4D4D" d="M177.065,223.692c14.773,0,26.75,11.977,26.75,26.75s-11.977,26.75-26.75,26.75s-26.75-11.977-26.75-26.75
		S162.292,223.692,177.065,223.692 M177.065,220.692c-16.404,0-29.75,13.346-29.75,29.75s13.346,29.75,29.75,29.75
		s29.75-13.346,29.75-29.75S193.469,220.692,177.065,220.692L177.065,220.692z"/>
</g>
<g>
	<path fill="#E6E6E6" d="M41.191,278.692c-15.577,0-28.25-12.673-28.25-28.25s12.673-28.25,28.25-28.25s28.25,12.673,28.25,28.25
		S56.769,278.692,41.191,278.692L41.191,278.692z"/>
	<path fill="#4D4D4D" d="M41.191,223.692c14.773,0,26.75,11.977,26.75,26.75s-11.977,26.75-26.75,26.75s-26.75-11.977-26.75-26.75
		S26.418,223.692,41.191,223.692 M41.191,220.692c-16.404,0-29.75,13.346-29.75,29.75s13.346,29.75,29.75,29.75
		s29.75-13.346,29.75-29.75S57.596,220.692,41.191,220.692L41.191,220.692z"/>
</g>
<g>
	<g>
		<rect x="30.926" y="38.174" transform="matrix(0.834 -0.5518 0.5518 0.834 -21.9137 27.9089)" width="9" height="24.399"/>
		<rect x="38.085" y="61.199" transform="matrix(0.834 -0.5518 0.5518 0.834 -27.1849 34.2439)" width="10.461" height="2.2"/>
		<path d="M22.715,31.164c-3.096,2.048,1.653,10.652,1.653,10.652l7.506-4.967C31.874,36.849,25.812,29.114,22.715,31.164z"/>
	</g>
	<g>
		<rect x="43.338" y="37.339" transform="matrix(0.834 -0.5517 0.5517 0.834 -19.391 34.6127)" width="8.999" height="24.399"/>
		<rect x="50.497" y="60.364" transform="matrix(0.834 -0.5518 0.5518 0.834 -24.6636 40.9542)" width="10.461" height="2.2"/>
		<path d="M35.127,30.328C32.031,32.375,36.78,40.98,36.78,40.98l7.506-4.966C44.286,36.014,38.225,28.279,35.127,30.328z"/>
	</g>
	<g>
		<rect x="49.303" y="26.03" transform="matrix(0.834 -0.5517 0.5517 0.834 -12.1625 36.0268)" width="8.999" height="24.399"/>
		<rect x="56.462" y="49.056" transform="matrix(0.834 -0.5518 0.5518 0.834 -17.4336 42.3682)" width="10.461" height="2.2"/>
		<path d="M41.092,19.02c-3.096,2.048,1.653,10.652,1.653,10.652l7.506-4.966C50.251,24.706,44.189,16.971,41.092,19.02z"/>
	</g>
	<g>
		<path d="M43.463,16.23c14.773,0,26.75,11.977,26.75,26.75s-11.977,26.75-26.75,26.75s-26.75-11.977-26.75-26.75
			S28.689,16.23,43.463,16.23 M43.463,13.23c-16.404,0-29.75,13.346-29.75,29.75s13.346,29.75,29.75,29.75s29.75-13.346,29.75-29.75
			S59.867,13.23,43.463,13.23L43.463,13.23z"/>
	</g>
</g>
<g>
	<g>
		<path d="M115.674,38.707l12.881,2.122c-0.974-7.832-7.171-14.03-15.003-15.004L115.674,38.707z"/>
		<path d="M107.126,38.707l2.122-12.882c-7.833,0.973-14.031,7.171-15.004,15.004L107.126,38.707z"/>
		<path d="M107.126,47.255l-12.882-2.123c0.974,7.832,7.171,14.03,15.003,15.003L107.126,47.255z"/>
		<path d="M115.674,47.255l-2.122,12.881c7.832-0.974,14.03-7.171,15.003-15.003L115.674,47.255z"/>
	</g>
	<g>
		<path d="M111.399,16.23c14.773,0,26.75,11.977,26.75,26.75s-11.977,26.75-26.75,26.75s-26.75-11.977-26.75-26.75
			S96.626,16.23,111.399,16.23 M111.399,13.23c-16.404,0-29.75,13.346-29.75,29.75s13.346,29.75,29.75,29.75
			s29.75-13.346,29.75-29.75S127.804,13.23,111.399,13.23L111.399,13.23z"/>
	</g>
</g>
<g>
	<polygon points="185.669,34.174 200.239,36.014 189.917,46.459 192.67,60.886 179.544,54.296 166.676,61.373 168.887,46.854 
		158.181,36.801 172.672,34.417 178.924,21.128 	"/>
	<g>
		<path d="M179.336,16.23c14.773,0,26.75,11.977,26.75,26.75s-11.977,26.75-26.75,26.75s-26.75-11.977-26.75-26.75
			S164.563,16.23,179.336,16.23 M179.336,13.23c-16.404,0-29.75,13.346-29.75,29.75s13.346,29.75,29.75,29.75
			s29.75-13.346,29.75-29.75S195.741,13.23,179.336,13.23L179.336,13.23z"/>
	</g>
</g>
<g>
	<g>
		<path d="M111.399,83.922c14.773,0,26.75,11.977,26.75,26.75s-11.977,26.75-26.75,26.75s-26.75-11.977-26.75-26.75
			S96.626,83.922,111.399,83.922 M111.399,80.922c-16.404,0-29.75,13.346-29.75,29.75s13.346,29.75,29.75,29.75
			s29.75-13.346,29.75-29.75S127.804,80.922,111.399,80.922L111.399,80.922z"/>
	</g>
	<path d="M96.857,93.022l6.328,6.329c0.699,0.699,0.699,1.833,0,2.532l-2.848,2.848c-0.699,0.699-1.832,0.699-2.531,0l-6.329-6.329
		c-1.348,2.46-0.981,5.61,1.103,7.694l2.806,2.806c1.957,1.957,4.854,2.399,7.237,1.33l12.571,12.571
		c-0.032,1.004,0.331,2.019,1.098,2.785l2.425,2.426c1.471,1.471,3.855,1.471,5.327,0l2.426-2.426c1.472-1.471,1.472-3.856,0-5.327
		l-2.426-2.426c-0.767-0.767-1.78-1.129-2.785-1.097l-12.571-12.571c1.069-2.383,0.627-5.28-1.33-7.237l-2.806-2.806
		C102.468,92.04,99.318,91.674,96.857,93.022z M123.49,125.034c-0.99,0.99-2.596,0.99-3.586,0s-0.99-2.596,0-3.586
		s2.596-0.99,3.586,0S124.48,124.044,123.49,125.034z"/>
	<g>
		
			<rect x="107.111" y="108.656" transform="matrix(-0.7071 -0.7071 0.7071 -0.7071 110.314 271.5791)" width="8.577" height="8.577"/>
		<path d="M103.921,114.358l-2.38,2.38c-1.004-0.032-2.019,0.331-2.785,1.097l-2.426,2.426c-1.471,1.471-1.471,3.855,0,5.326
			l2.426,2.426c1.471,1.471,3.855,1.471,5.326,0l2.426-2.426c0.767-0.766,1.13-1.781,1.098-2.785l2.38-2.38L103.921,114.358z
			 M102.896,125.035c-0.99,0.99-2.596,0.99-3.586,0c-0.99-0.991-0.99-2.596,0-3.586s2.596-0.99,3.586,0
			S103.886,124.044,102.896,125.035z"/>
		<path d="M131.322,98.401l-6.329,6.329c-0.699,0.699-1.833,0.699-2.532,0l-2.848-2.848c-0.699-0.699-0.699-1.833,0-2.532
			l6.329-6.329c-2.461-1.348-5.61-0.982-7.694,1.102l-2.806,2.806c-1.957,1.957-2.399,4.854-1.33,7.237l-1.298,1.298l6.064,6.064
			l1.297-1.297c2.385,1.069,5.281,0.627,7.238-1.33l2.805-2.806C132.303,104.012,132.67,100.862,131.322,98.401z"/>
	</g>
</g>
<g>
	<g>
		<path d="M179.336,83.922c14.773,0,26.75,11.977,26.75,26.75s-11.977,26.75-26.75,26.75s-26.75-11.977-26.75-26.75
			S164.563,83.922,179.336,83.922 M179.336,80.922c-16.404,0-29.75,13.346-29.75,29.75s13.346,29.75,29.75,29.75
			s29.75-13.346,29.75-29.75S195.741,80.922,179.336,80.922L179.336,80.922z"/>
	</g>
	<g>
		<path d="M179.102,87.151l-11.878,23.317l10.902,2.671l-11.933,18.307l30.043-22.739l-13.525-3.121l12.194-12.652
			C190.54,89.465,185.068,87.333,179.102,87.151z"/>
	</g>
</g>
<g>
	<path d="M47.395,107.456c-1.735-0.625-4.642-1.384-5.589-3.185c-1.036-1.971,1.196-3.369,2.862-3.571
		c2.844,0.246,5.257,1.465,7.763,2.702c0.398-2.199,1.062-4.348,1.636-6.507c-1.68-0.768-3.84-1.488-7.009-1.584v-4.225
		c-2.364,0-4.729,0-7.094,0v4.561c-3.188,0.596-6.302,2.35-7.547,5.488c-1.173,2.958-0.526,6.379,1.828,8.547
		c1.227,1.13,2.735,1.92,4.266,2.556c1.813,0.754,3.801,1.187,5.46,2.276c1,0.655,1.754,1.614,1.648,2.866
		c-0.151,1.779-2.038,2.507-3.572,2.685c-3.224-0.286-5.96-1.687-8.771-3.148c-0.555,2.243-1.139,4.479-1.713,6.717
		c1.824,1.008,4.944,1.92,8.161,2.064v4.56c2.381,0,4.762,0,7.143,0v-4.944c4.537-0.75,8.497-3.954,8.497-8.833
		c0-1.971-0.524-3.891-1.843-5.395C51.937,109.278,49.616,108.24,47.395,107.456"/>
	<g>
		<path d="M43.463,83.922c14.773,0,26.75,11.977,26.75,26.75s-11.977,26.75-26.75,26.75s-26.75-11.977-26.75-26.75
			S28.689,83.922,43.463,83.922 M43.463,80.922c-16.404,0-29.75,13.346-29.75,29.75s13.346,29.75,29.75,29.75
			s29.75-13.346,29.75-29.75S59.867,80.922,43.463,80.922L43.463,80.922z"/>
	</g>
</g>
<rect x="28.654" y="177.944" transform="matrix(0.834 -0.5518 0.5518 0.834 -99.4113 49.8576)" fill="#F7931E" width="9" height="24.399"/>
<rect x="35.814" y="200.969" transform="matrix(0.834 -0.5518 0.5518 0.834 -104.6855 56.1946)" fill="#808080" width="10.461" height="2.2"/>
<path fill="#808080" d="M20.444,170.934c-3.096,2.048,1.653,10.652,1.653,10.652l7.506-4.967
	C29.603,176.619,23.541,168.884,20.444,170.934z"/>
<rect x="41.067" y="177.109" transform="matrix(0.834 -0.5517 0.5517 0.834 -96.8779 56.5546)" fill="#F7931E" width="8.999" height="24.399"/>
<rect x="48.226" y="200.134" transform="matrix(0.834 -0.5518 0.5518 0.834 -102.1642 62.9048)" fill="#808080" width="10.461" height="2.2"/>
<path fill="#808080" d="M32.855,170.098c-3.096,2.048,1.653,10.652,1.653,10.652l7.506-4.966
	C42.015,175.784,35.953,168.049,32.855,170.098z"/>
<rect x="47.032" y="165.8" transform="matrix(0.834 -0.5517 0.5517 0.834 -89.6494 57.9688)" fill="#F7931E" width="8.999" height="24.399"/>
<rect x="54.191" y="188.826" transform="matrix(0.834 -0.5518 0.5518 0.834 -94.9342 64.3188)" fill="#808080" width="10.461" height="2.2"/>
<path fill="#808080" d="M38.82,158.79c-3.096,2.048,1.653,10.652,1.653,10.652l7.506-4.966
	C47.979,164.476,41.918,156.741,38.82,158.79z"/>
<g>
	<path fill="#9E005D" d="M113.402,178.477l12.881,2.122c-0.974-7.832-7.171-14.03-15.003-15.004L113.402,178.477z"/>
	<path fill="#9E005D" d="M104.854,178.477l2.122-12.882c-7.833,0.973-14.031,7.171-15.004,15.004L104.854,178.477z"/>
	<path fill="#9E005D" d="M104.854,187.025l-12.882-2.123c0.974,7.832,7.171,14.03,15.003,15.003L104.854,187.025z"/>
	<path fill="#9E005D" d="M113.402,187.025l-2.122,12.881c7.832-0.974,14.03-7.171,15.003-15.003L113.402,187.025z"/>
</g>
<polygon fill="#F7931E" points="183.398,173.944 197.968,175.784 187.645,186.229 190.398,200.656 177.273,194.066 164.404,201.143 
	166.616,186.624 155.91,176.571 170.401,174.188 176.653,160.898 "/>
<g>
	
		<rect x="104.84" y="248.426" transform="matrix(-0.7071 -0.7071 0.7071 -0.7071 7.6079 508.5793)" fill="#4D4D4D" width="8.577" height="8.577"/>
	<path fill="#4D4D4D" d="M101.649,254.128l-2.38,2.38c-1.004-0.032-2.019,0.331-2.785,1.097l-2.426,2.426
		c-1.471,1.471-1.471,3.855,0,5.326l2.426,2.426c1.471,1.471,3.855,1.471,5.326,0l2.426-2.426c0.767-0.766,1.13-1.781,1.098-2.785
		l2.38-2.38L101.649,254.128z M100.624,264.805c-0.99,0.99-2.596,0.99-3.586,0c-0.99-0.991-0.99-2.596,0-3.586s2.596-0.99,3.586,0
		S101.614,263.814,100.624,264.805z"/>
	<path fill="#4D4D4D" d="M129.051,238.171l-6.329,6.329c-0.699,0.699-1.833,0.699-2.532,0l-2.848-2.848
		c-0.699-0.699-0.699-1.833,0-2.532l6.329-6.329c-2.461-1.348-5.61-0.982-7.694,1.102l-2.806,2.806
		c-1.957,1.957-2.399,4.854-1.33,7.237l-1.298,1.298l6.064,6.064l1.297-1.297c2.385,1.069,5.281,0.627,7.238-1.33l2.805-2.806
		C130.031,243.782,130.398,240.632,129.051,238.171z"/>
</g>
<g>
	<path fill="#FBB03B" d="M176.831,226.921l-11.878,23.317l10.902,2.671l-11.933,18.307l30.043-22.739l-13.525-3.121l12.194-12.652
		C188.268,229.235,182.796,227.103,176.831,226.921z"/>
</g>
<path fill="#006837" d="M45.123,247.226c-1.735-0.625-4.642-1.384-5.589-3.185c-1.036-1.971,1.196-3.369,2.862-3.571
	c2.844,0.246,5.257,1.465,7.763,2.702c0.398-2.199,1.062-4.348,1.636-6.507c-1.68-0.768-3.84-1.488-7.009-1.584v-4.225
	c-2.364,0-4.729,0-7.094,0v4.561c-3.188,0.596-6.302,2.35-7.547,5.488c-1.173,2.958-0.526,6.379,1.828,8.547
	c1.227,1.13,2.735,1.92,4.266,2.556c1.813,0.754,3.801,1.187,5.46,2.276c1,0.655,1.754,1.614,1.648,2.866
	c-0.151,1.779-2.038,2.507-3.572,2.685c-3.224-0.286-5.96-1.687-8.771-3.148c-0.555,2.243-1.139,4.479-1.713,6.717
	c1.824,1.008,4.944,1.92,8.161,2.064v4.56c2.381,0,4.762,0,7.143,0v-4.944c4.537-0.75,8.497-3.954,8.497-8.833
	c0-1.971-0.524-3.891-1.843-5.395C49.665,249.048,47.345,248.01,45.123,247.226"/>
<path fill="#999999" d="M94.586,232.792l6.328,6.329c0.699,0.699,0.699,1.833,0,2.532l-2.848,2.848
	c-0.699,0.699-1.832,0.699-2.531,0l-6.329-6.329c-1.348,2.46-0.981,5.61,1.103,7.694l2.806,2.806
	c1.957,1.957,4.854,2.399,7.237,1.33l12.571,12.571c-0.032,1.004,0.331,2.019,1.098,2.785l2.425,2.426
	c1.471,1.471,3.855,1.471,5.327,0l2.426-2.426c1.472-1.471,1.472-3.856,0-5.327l-2.426-2.426c-0.767-0.767-1.78-1.129-2.785-1.097
	l-12.571-12.571c1.069-2.383,0.627-5.28-1.33-7.237l-2.806-2.806C100.196,231.81,97.047,231.444,94.586,232.792z M121.219,264.804
	c-0.99,0.99-2.596,0.99-3.586,0s-0.99-2.596,0-3.586s2.596-0.99,3.586,0S122.209,263.814,121.219,264.804z"/>
</svg>
