<?xml version="1.0" encoding="utf-8"?>
<!-- Generator: Adobe Illustrator 18.0.0, SVG Export Plug-In . SVG Version: 6.00 Build 0)  -->
<!DOCTYPE svg PUBLIC "-//W3C//DTD SVG 1.1//EN" "http://www.w3.org/Graphics/SVG/1.1/DTD/svg11.dtd">
<svg version="1.1" id="Layer_1" xmlns="http://www.w3.org/2000/svg" xmlns:xlink="http://www.w3.org/1999/xlink" x="0px" y="0px"
	 viewBox="0 0 139.2 90" enable-background="new 0 0 139.2 90" xml:space="preserve">
<g id="Florid_Vector_Pack_14">
</g>
<g>
	<g>
		<g>
			<linearGradient id="SVGID_1_" gradientUnits="userSpaceOnUse" x1="32.8785" y1="34.0608" x2="32.8785" y2="19.2542">
				<stop  offset="0" style="stop-color:#FFF33B"/>
				<stop  offset="5.948725e-002" style="stop-color:#FFE029"/>
				<stop  offset="0.1303" style="stop-color:#FFD218"/>
				<stop  offset="0.2032" style="stop-color:#FEC90F"/>
				<stop  offset="0.2809" style="stop-color:#FDC70C"/>
				<stop  offset="0.6685" style="stop-color:#F3903F"/>
				<stop  offset="0.8876" style="stop-color:#ED683C"/>
				<stop  offset="1" style="stop-color:#E93E3A"/>
			</linearGradient>
			<path fill="url(#SVGID_1_)" d="M34.5,13.5c0.1,0,0.2,0,0.3,0c0.1,0,0.2,0,0.3,0c0.1,0,0.2,0.1,0.3,0c0.3,0,0.5,0.1,0.8,0.1
				s0.5,0.1,0.7,0.2c0.3,0.1,0.6,0.2,0.9,0.4c0.9,0.5,1.7,1.1,2.3,2c0.5,0.8,0.9,1.6,1.1,2.6c0.2,0.9,0.1,1.9-0.1,2.8
				c0,0.1-0.1,0.2-0.1,0.3s-0.1,0.2-0.1,0.3c-0.1,0.4-0.3,0.7-0.6,1.1c-0.2,0.4-0.5,0.7-0.7,1l-1.6,2.3l4.3,9.8h-7.6l-4.4-10
				l4.8-6.6h-5v16.5h-6.3v-23H34.5z"/>
			<linearGradient id="SVGID_2_" gradientUnits="userSpaceOnUse" x1="45.8536" y1="34.0608" x2="45.8536" y2="19.2542">
				<stop  offset="0" style="stop-color:#FFF33B"/>
				<stop  offset="5.948725e-002" style="stop-color:#FFE029"/>
				<stop  offset="0.1303" style="stop-color:#FFD218"/>
				<stop  offset="0.2032" style="stop-color:#FEC90F"/>
				<stop  offset="0.2809" style="stop-color:#FDC70C"/>
				<stop  offset="0.6685" style="stop-color:#F3903F"/>
				<stop  offset="0.8876" style="stop-color:#ED683C"/>
				<stop  offset="1" style="stop-color:#E93E3A"/>
			</linearGradient>
			<path fill="url(#SVGID_2_)" d="M48.3,19.3v17.3h-4.8V19.3H48.3z"/>
			<linearGradient id="SVGID_3_" gradientUnits="userSpaceOnUse" x1="57.4565" y1="34.0608" x2="57.4565" y2="19.2542">
				<stop  offset="0" style="stop-color:#FFF33B"/>
				<stop  offset="5.948725e-002" style="stop-color:#FFE029"/>
				<stop  offset="0.1303" style="stop-color:#FFD218"/>
				<stop  offset="0.2032" style="stop-color:#FEC90F"/>
				<stop  offset="0.2809" style="stop-color:#FDC70C"/>
				<stop  offset="0.6685" style="stop-color:#F3903F"/>
				<stop  offset="0.8876" style="stop-color:#ED683C"/>
				<stop  offset="1" style="stop-color:#E93E3A"/>
			</linearGradient>
			<path fill="url(#SVGID_3_)" d="M64.8,22.1c0.1,0.1,0.2,0.2,0.2,0.2c0.1,0.1,0.1,0.2,0.2,0.3l-3.8,3c-0.1-0.2-0.3-0.3-0.4-0.4
				c-0.1-0.1-0.3-0.3-0.5-0.4c0,0-0.1-0.1-0.1-0.1c0,0-0.1-0.1-0.1-0.1c-0.1,0-0.1,0-0.2-0.1c-0.1,0-0.1-0.1-0.2-0.1
				c-0.4-0.2-0.8-0.3-1.2-0.3c-0.4,0-0.9,0-1.2,0.1c-0.6,0.1-1.1,0.4-1.7,0.9c0,0.1-0.1,0.2-0.2,0.2c-0.1,0.1-0.2,0.2-0.2,0.3
				c-0.5,0.7-0.8,1.5-0.8,2.4c0,0.2,0,0.3,0,0.3c0,0,0,0,0,0.1c0,0.3,0,0.5,0.1,0.6c0.1,0.2,0.2,0.5,0.3,0.7
				c0.1,0.2,0.3,0.4,0.4,0.6c0.4,0.4,0.9,0.8,1.5,1.1c0.2,0.1,0.5,0.2,0.8,0.2c0.3,0,0.6,0.1,0.9,0.1c0.3,0,0.5-0.1,0.8-0.1
				c0.3-0.1,0.5-0.1,0.8-0.2c0.3-0.2,0.6-0.4,0.9-0.7l0.1-0.1c0.1-0.1,0.2-0.2,0.3-0.3l3.8,3c-0.8,1-1.7,1.8-2.8,2.3
				c-1.1,0.6-2.3,0.9-3.5,0.9c-1.5,0.1-2.9-0.1-4.1-0.7c-1.3-0.6-2.3-1.4-3.3-2.5c-0.5-0.7-0.9-1.3-1.2-2.1
				c-0.3-0.7-0.5-1.5-0.6-2.3c-0.2-1.5,0.1-2.9,0.6-4.3c0.6-1.3,1.5-2.5,2.6-3.4c1-0.8,2.2-1.4,3.5-1.7c1.3-0.3,2.6-0.3,3.9,0
				C62.1,19.9,63.6,20.7,64.8,22.1z"/>
			<linearGradient id="SVGID_4_" gradientUnits="userSpaceOnUse" x1="74.0587" y1="36.5282" x2="74.0587" y2="19.2582">
				<stop  offset="0" style="stop-color:#FFF33B"/>
				<stop  offset="5.948725e-002" style="stop-color:#FFE029"/>
				<stop  offset="0.1303" style="stop-color:#FFD218"/>
				<stop  offset="0.2032" style="stop-color:#FEC90F"/>
				<stop  offset="0.2809" style="stop-color:#FDC70C"/>
				<stop  offset="0.6685" style="stop-color:#F3903F"/>
				<stop  offset="0.8876" style="stop-color:#ED683C"/>
				<stop  offset="1" style="stop-color:#E93E3A"/>
			</linearGradient>
			<polygon fill="url(#SVGID_4_)" points="81.3,19.3 81.3,36.5 76.5,36.5 76.5,30.3 71.7,30.3 71.7,36.5 66.8,36.5 66.8,19.3 
				71.7,19.3 71.7,25.5 71.7,25.6 76.4,25.6 76.4,19.3 			"/>
			<linearGradient id="SVGID_5_" gradientUnits="userSpaceOnUse" x1="92.3149" y1="34.0608" x2="92.3149" y2="19.2542">
				<stop  offset="0" style="stop-color:#FFF33B"/>
				<stop  offset="5.948725e-002" style="stop-color:#FFE029"/>
				<stop  offset="0.1303" style="stop-color:#FFD218"/>
				<stop  offset="0.2032" style="stop-color:#FEC90F"/>
				<stop  offset="0.2809" style="stop-color:#FDC70C"/>
				<stop  offset="0.6685" style="stop-color:#F3903F"/>
				<stop  offset="0.8876" style="stop-color:#ED683C"/>
				<stop  offset="1" style="stop-color:#E93E3A"/>
			</linearGradient>
			<path fill="url(#SVGID_5_)" d="M101.8,36.5h-4.9l-1.4-5l-3.2,4.9l-3-5l-1.4,5h-5.1l4.9-17.1l4.6,7.4l4.6-7.6L101.8,36.5z"/>
			<linearGradient id="SVGID_6_" gradientUnits="userSpaceOnUse" x1="111.2119" y1="34.0608" x2="111.2119" y2="19.2542">
				<stop  offset="0" style="stop-color:#FFF33B"/>
				<stop  offset="5.948725e-002" style="stop-color:#FFE029"/>
				<stop  offset="0.1303" style="stop-color:#FFD218"/>
				<stop  offset="0.2032" style="stop-color:#FEC90F"/>
				<stop  offset="0.2809" style="stop-color:#FDC70C"/>
				<stop  offset="0.6685" style="stop-color:#F3903F"/>
				<stop  offset="0.8876" style="stop-color:#ED683C"/>
				<stop  offset="1" style="stop-color:#E93E3A"/>
			</linearGradient>
			<path fill="url(#SVGID_6_)" d="M119.4,36.5h-5.4l-2.7-5.7l-2.8,5.7h-5.4l8.2-17.3L119.4,36.5z"/>
			<linearGradient id="SVGID_7_" gradientUnits="userSpaceOnUse" x1="127.3785" y1="34.0608" x2="127.3785" y2="19.2542">
				<stop  offset="0" style="stop-color:#FFF33B"/>
				<stop  offset="5.948725e-002" style="stop-color:#FFE029"/>
				<stop  offset="0.1303" style="stop-color:#FFD218"/>
				<stop  offset="0.2032" style="stop-color:#FEC90F"/>
				<stop  offset="0.2809" style="stop-color:#FDC70C"/>
				<stop  offset="0.6685" style="stop-color:#F3903F"/>
				<stop  offset="0.8876" style="stop-color:#ED683C"/>
				<stop  offset="1" style="stop-color:#E93E3A"/>
			</linearGradient>
			<path fill="url(#SVGID_7_)" d="M134,19.3v17.3l-8.4-6.9v6.9h-4.8V19.3L129,26v-6.8H134L134,19.3z"/>
		</g>
		<g>
			<g>
				<linearGradient id="SVGID_8_" gradientUnits="userSpaceOnUse" x1="41.4323" y1="56.0054" x2="41.4323" y2="43.5726">
					<stop  offset="0" style="stop-color:#FFF33B"/>
					<stop  offset="5.948725e-002" style="stop-color:#FFE029"/>
					<stop  offset="0.1303" style="stop-color:#FFD218"/>
					<stop  offset="0.2032" style="stop-color:#FEC90F"/>
					<stop  offset="0.2809" style="stop-color:#FDC70C"/>
					<stop  offset="0.6685" style="stop-color:#F3903F"/>
					<stop  offset="0.8876" style="stop-color:#ED683C"/>
					<stop  offset="1" style="stop-color:#E93E3A"/>
				</linearGradient>
				<path fill="url(#SVGID_8_)" d="M42.6,38.9c0.4,0,0.7,0,1.1,0c0.4,0,0.7,0.1,1,0.2c0.5,0.1,0.9,0.3,1.3,0.5
					c0.4,0.2,0.8,0.5,1.2,0.8c0.4,0.3,0.7,0.7,0.9,1.1c0.3,0.4,0.5,0.8,0.6,1.3C49,43.3,49,44,49,44.6c0,0.7-0.2,1.3-0.4,1.9
					c-0.1,0.1-0.1,0.2-0.1,0.3c0,0.1-0.1,0.2-0.1,0.3c-0.1,0.1-0.1,0.2-0.2,0.3c-0.1,0.1-0.2,0.3-0.3,0.5c-0.1,0.2-0.4,0.5-0.6,0.9
					c-0.3,0.4-0.6,0.9-1,1.5h-6.7v8.4h-5.6V38.9H42.6z M43.4,44.4h-4v5.6L43.4,44.4z"/>
				<linearGradient id="SVGID_9_" gradientUnits="userSpaceOnUse" x1="67.9575" y1="56.0054" x2="67.9575" y2="43.5726">
					<stop  offset="0" style="stop-color:#FFF33B"/>
					<stop  offset="5.948725e-002" style="stop-color:#FFE029"/>
					<stop  offset="0.1303" style="stop-color:#FFD218"/>
					<stop  offset="0.2032" style="stop-color:#FEC90F"/>
					<stop  offset="0.2809" style="stop-color:#FDC70C"/>
					<stop  offset="0.6685" style="stop-color:#F3903F"/>
					<stop  offset="0.8876" style="stop-color:#ED683C"/>
					<stop  offset="1" style="stop-color:#E93E3A"/>
				</linearGradient>
				<path fill="url(#SVGID_9_)" d="M69,43.8c0.1,0,0.2,0,0.2,0c0.1,0,0.2,0,0.2,0c0.1,0,0.1,0,0.2,0c0.2,0,0.3,0,0.5,0.1
					c0.2,0,0.3,0.1,0.5,0.2c0.2,0.1,0.4,0.1,0.6,0.3c0.6,0.3,1.1,0.7,1.4,1.3c0.4,0.5,0.6,1,0.7,1.6c0.1,0.6,0.1,1.2-0.1,1.8
					c0,0.1-0.1,0.2-0.1,0.2c0,0.1,0,0.2-0.1,0.2c-0.1,0.2-0.2,0.5-0.4,0.7c-0.2,0.2-0.3,0.4-0.5,0.6l-1,1.5l2.8,6.3H69l-2.8-6.4
					l3.1-4.2H66v10.6H62V43.8H69z"/>
				<linearGradient id="SVGID_10_" gradientUnits="userSpaceOnUse" x1="81.9547" y1="56.0054" x2="81.9547" y2="43.5726">
					<stop  offset="0" style="stop-color:#FFF33B"/>
					<stop  offset="5.948725e-002" style="stop-color:#FFE029"/>
					<stop  offset="0.1303" style="stop-color:#FFD218"/>
					<stop  offset="0.2032" style="stop-color:#FEC90F"/>
					<stop  offset="0.2809" style="stop-color:#FDC70C"/>
					<stop  offset="0.6685" style="stop-color:#F3903F"/>
					<stop  offset="0.8876" style="stop-color:#ED683C"/>
					<stop  offset="1" style="stop-color:#E93E3A"/>
				</linearGradient>
				<path fill="url(#SVGID_10_)" d="M88.9,58.6h-4.7L82,53.8l-2.4,4.8H75l7-14.8L88.9,58.6z"/>
				<linearGradient id="SVGID_11_" gradientUnits="userSpaceOnUse" x1="94.0238" y1="56.0054" x2="94.0238" y2="43.5726">
					<stop  offset="0" style="stop-color:#FFF33B"/>
					<stop  offset="5.948725e-002" style="stop-color:#FFE029"/>
					<stop  offset="0.1303" style="stop-color:#FFD218"/>
					<stop  offset="0.2032" style="stop-color:#FEC90F"/>
					<stop  offset="0.2809" style="stop-color:#FDC70C"/>
					<stop  offset="0.6685" style="stop-color:#F3903F"/>
					<stop  offset="0.8876" style="stop-color:#ED683C"/>
					<stop  offset="1" style="stop-color:#E93E3A"/>
				</linearGradient>
				<path fill="url(#SVGID_11_)" d="M98.5,43.8l0.6,4.2h-2.9v10.6h-4.2V48H89l0.6-4.2H98.5z"/>
				<linearGradient id="SVGID_12_" gradientUnits="userSpaceOnUse" x1="106.4284" y1="56.0054" x2="106.4284" y2="43.5726">
					<stop  offset="0" style="stop-color:#FFF33B"/>
					<stop  offset="5.948725e-002" style="stop-color:#FFE029"/>
					<stop  offset="0.1303" style="stop-color:#FFD218"/>
					<stop  offset="0.2032" style="stop-color:#FEC90F"/>
					<stop  offset="0.2809" style="stop-color:#FDC70C"/>
					<stop  offset="0.6685" style="stop-color:#F3903F"/>
					<stop  offset="0.8876" style="stop-color:#ED683C"/>
					<stop  offset="1" style="stop-color:#E93E3A"/>
				</linearGradient>
				<path fill="url(#SVGID_12_)" d="M111.2,43.8l0.5,4.2l-3.1,0l1.9,3.1l-1.9,3.3h3.1l-0.5,4.1h-10.1l4.5-7.4l-4.5-7.4H111.2z"/>
			</g>
			<g>
				<g>
					<linearGradient id="SVGID_13_" gradientUnits="userSpaceOnUse" x1="55.2731" y1="70.2336" x2="55.2731" y2="38.861">
						<stop  offset="0" style="stop-color:#FFF33B"/>
						<stop  offset="5.948725e-002" style="stop-color:#FFE029"/>
						<stop  offset="0.1303" style="stop-color:#FFD218"/>
						<stop  offset="0.2032" style="stop-color:#FEC90F"/>
						<stop  offset="0.2809" style="stop-color:#FDC70C"/>
						<stop  offset="0.6685" style="stop-color:#F3903F"/>
						<stop  offset="0.8876" style="stop-color:#ED683C"/>
						<stop  offset="1" style="stop-color:#E93E3A"/>
					</linearGradient>
					<path fill="url(#SVGID_13_)" d="M64.8,57.7c-0.2,0.9-1.2,2.8-2.6,3.4s0.8,0.5,1.1,0.4c0.3-0.1,0.3,0.4-0.6,1.1
						c-0.9,0.8-3.2,2.3-4.8,1.3c0,0-1-0.5-1-2.1c0-1.6-0.1-13.2-0.1-13.2h1.5c0,0,0.4,0.3,1-0.2c0.6-0.5,1.6-0.3,2-0.4
						c0.4-0.1,0.7-2.1-0.1-2.2c-0.8-0.1-1.6-0.3-1.7-0.4c-0.1-0.1-0.7-0.4-1.2-0.2l-1.6,0v-1c0.8-0.5,1.3-1.4,1.3-2.4
						c0-1.6-1.3-2.9-2.9-2.9c-1.6,0-2.9,1.3-2.9,2.9c0,1.1,0.6,2.1,1.5,2.6v0.9l-1.6,0c-0.4-0.2-1.1,0.1-1.2,0.2
						c-0.1,0.1-0.9,0.3-1.7,0.4c-0.8,0.1-0.5,2.1-0.1,2.2c0.4,0.1,1.4-0.1,2,0.4c0.6,0.5,1,0.2,1,0.2h1.5c0,0-0.1,11.6-0.1,13.2
						c0,1.6-1,2.1-1,2.1c-1.6,1-3.9-0.5-4.8-1.3c-0.9-0.8-0.9-1.2-0.6-1.1c0.3,0.1,2.5,0.1,1.1-0.4c-1.4-0.6-2.4-2.4-2.6-3.4
						c-0.2-0.9-0.4-0.2-0.4-0.2c-0.7,1.6-0.6,3.5-0.1,5c0.4,1.6,0.7,0.7,0.8,0.3c0.2-0.4,0.3-0.3,0.3-0.3c0.4,1.6,3.1,4,5.3,4.9
						c2.2,0.9,3.7,2.8,3.7,2.8s1.4-2,3.7-2.8c2.2-0.9,4.9-3.3,5.3-4.9c0,0,0.1-0.1,0.3,0.3c0.2,0.4,0.4,1.3,0.8-0.3
						c0.4-1.6,0.5-3.4-0.2-5C65.2,57.5,65,56.8,64.8,57.7z M45.6,62.7c0,0-0.9-2-0.1-4.9c0,0,0.1,1.6,0.6,2.7
						C46.1,60.5,45.5,61.5,45.6,62.7z M53.4,42.7c0,0-1.1-0.4-0.9-1.6c0,0,0.1-1,1.3-1.8c1.4-0.8,2.7,0.3,2.8,0.8c0,0-1.3-1-2.6-0.1
						C52.7,41,53.2,42.5,53.4,42.7z M53.7,41.8c0-0.8,0.6-1.5,1.4-1.5c0.8,0,1.4,0.7,1.4,1.5c0,0.4-0.1,0.7-0.4,1
						c-0.3-0.2-0.6-0.3-0.9-0.3c-0.4,0-0.8,0.2-1.1,0.5C53.9,42.6,53.7,42.2,53.7,41.8z M54,44.3c0,0-0.3-0.6,0.2-1.1
						c0,0,0.4-0.6,1.1-0.6c0.7,0,0.9,0.4,0.9,0.4c0,0,0.2,0.3-0.1,0.5c-0.2,0.1-0.4,0.2-1.1-0.1C54.1,43,54,43.9,54,44.3z M51.1,47
						c-1.4,0-1.8-0.8-1.8-0.8c1.3,0,2.7-0.6,2.7-0.6h6.5c0.6,0.4,2.4,0.7,2.4,0.7c-0.4,0.6-1.2,0.7-1.2,0.7H51.1z M55.3,69.4
						c0,0-0.6-1.1-2-1.7c0,0,1.8,0,2-1.4V69.4z M63.7,62.5c-1.1,1.9-3.3,3.8-6.1,3.5c0,0-2.3,0-2.3-3v-1.2h0V63c0,3-2.3,3-2.3,3
						c-2.9,0.2-5-1.7-6.1-3.5c-0.1-0.1-0.2-0.3-0.2-0.4c0.1,0.1,0.2,0.3,0.2,0.4c0.8,1.4,2.8,3.2,5.3,3c0.3,0,0.5-0.1,0.7-0.1
						c0,0,0,0,0,0c0.2,0,0.3-0.1,0.5-0.1c1.4-0.6,1.7-2.5,1.8-3.5c0,0,0,0,0,0v-0.6c0,0,0,0,0,0h0l0.1-11.9c0-0.1,0.1-0.1,0.1,0
						l0.1,12.5c0,0,0,0,0,0c0,1,0.3,2.9,1.8,3.5c0.3,0.1,0.7,0.2,1.2,0.3C60.9,65.7,62.8,63.9,63.7,62.5c0.1-0.1,0.2-0.3,0.2-0.4
						C63.8,62.2,63.8,62.4,63.7,62.5z M64.7,60.4c0,0-0.6,0.9-2.3,0.9c0,0,1.9-0.8,2.6-3.4C65,57.9,65.2,59.3,64.7,60.4z"/>
				</g>
			</g>
		</g>
	</g>
	<g>
		<path fill="#00AEEF" d="M12.2,30.3c0.2-1.2-0.6-3.2-1.8-3.8c0.1,0.4,0.3,0.8,0.3,1.4c0.1,0.8-0.9,1.3-1.5,0.7
			c-0.9-1-2.2-2-4.1-2.6c5.3,3.7,7.4,12.1,5.8,23.7c-1.5,11.5,4.9,16.2,7.2,17.3l0,0c3.6,1.8,8.2,0.8,9.7-2.6c0.8-1.7,1-2.5,1-3.6
			c0-0.2,0.1-0.4-0.2-1.3c-0.5-2.1-1.9-3.1-3.7-2.7c-1.8,0.3-2.1,2-2.1,2c-0.4,1.4,0.2,3,1.6,3.5c0,0,0,0,0,0
			c0.5,0.1,1.1-0.1,1.3-0.2c1-0.6,0.6-1.8,0.6-1.8s-0.4,0.5-1.1,0.3c-1-0.3-0.8-2.2,0.8-1.7c0.7,0.2,1.1,0.9,1.3,1.6
			c0,0.1,0,0.3,0,0.4c0.2,1.6-0.4,2.8-1.4,3.7c-0.5,0.3-1,0.4-1.6,0.3c-1.5-0.3-2-1.6-2-1.6s-0.2,1.1,0.3,1.9
			c-0.9-0.4-1.8-1.1-2.3-2.3c0,0,0.1,1.7,1.6,3.2c-0.1,0-0.2,0-0.4-0.1c-0.8-0.2-2.6-1-3.4-2.5c-1.1-2-1.3-4.5,0.3-4.9
			c1.6-0.4,1.4,2.1-0.1,1.4c0,0,0.1,1.6,1.8,1.4c1.4-0.2,1.9-2.3,1.3-3.6c-0.2-0.3-0.1-0.7,0.2-1c0.2-0.2,0.4-0.4,0.7-0.8
			c0.2-0.4,0.7-0.6,1.2-0.4c2.3,1.3,4.2-0.8,4-2.2c-0.2-1.7-1.3-1.2-1.3-1.2s0.4,0.1,0.2,0.8s-1.5,0.4-1.3-0.4
			c0.4-1.5,2-0.3,2.9-3.3c0.9-3-1.9-4.3-1.9-4.3s0.8,0.8,0.3,2.5c-0.5,1.7-2.9,1.4-3.6,2.5c-0.3,0.4-0.4,0.9-0.4,1.3
			c-0.5-0.9-1.3-1.5-1.8-1.7c0,0,0.7,0.8,0,1.7c-0.7,0.9-1.9,0-3.4,1.2c-0.7,0.6-0.9,1.3-0.9,2c0,0.5-0.4,0.9-0.9,0.9
			c-0.4,0-1,0.1-1.4,0.8c-0.2,0.3-0.3,0.6-0.4,0.9c0,0,0,0,0-0.1c-0.8-7.2,5-7.7,5.6-7.5c0.7,0.3,1.1-0.1,1.1-0.1
			c-1.1-0.4-0.3-1.2-0.3-1.2s1.1,1.1,2.5,0.2c0.6-0.3,0.8-0.8,0.9-1.2c0.1-0.5-0.3-1-0.8-1c-0.8-0.1-1.2-1.7,0.2-1.8
			c1.8-0.1,1.5,1.4,1.5,1.4c0.3-0.6,0.3-2.8-1.5-3.4c-1.9-0.6-3.2,0.5-3.2,0.5c0.2-0.9-0.7-1-0.7-1c0.1,1.2-0.9,0.9-2,1.3
			c-0.7,0.3-0.9,0.9-1,1.3c-0.1-0.4-0.8-0.6-0.8-0.6c0.4,1.4-0.5,1.2-0.9,1.7c-0.4,0.6,0.2,1.2,0.2,1.2s-1.3,0.5-1.8,1.9
			c-0.1,0.4-0.2,0.9-0.3,1.3c0.2-1.3,0.6-2.7,1.1-4.1c1.5-4.1,2.7-5,3.5-5c0.8,0.1,0.7,1.3,0.1,1.3c0,0,0.4,0.4,1-0.1
			c0.4-0.4,0.8-1.6,0.1-2.3c-0.5-0.5-0.4-1.2,0.3-1.4c0.4-0.1,0.9-0.2,1.4-0.2c2.1,0.1,1.2,2.3,0.2,1.4c0,0-0.4,1.1,0.9,1.5
			c1.3,0.4,3.5-2.6,0.9-4.3c-2-1.3-5.2,0.4-7.2,3c0.3-1,0.7-1.7,0.9-2.1c0.3-0.6,0.7-0.9,0.9-1.1c0.6-0.3,0.7-1.1,0.1-1.5
			c0,0-0.1-0.1-0.1-0.1c-0.5-0.3-0.6-0.9-0.2-1.3c0.5-0.6,0.6-1.5,0.2-2.2c-0.2-0.3-0.4-0.6-0.7-0.7c-0.5-0.3-1.2-0.1-1.3,0.5
			C14.4,32.8,11.8,32.7,12.2,30.3z"/>
		<g>
			<g>
				<g>
					<g>
						<g>
							<path fill="#F7941E" d="M68.8,70.8c-0.2,0-0.4,0.1-0.6,0.1c-0.1,0.1-0.3,0.1-0.4,0.1c-0.6,0.1-1.3,0.3-1.9,0.4
								c-0.4,0.1-0.7,0.1-1.1,0.2c-0.1,0-0.1,0-0.2,0c-2.6,0.4-5.2,0.6-8,0.6c-3.7,0-7.1-0.4-10-0.8c-0.1,0-0.2,0-0.3,0
								c-0.3,0-0.6-0.1-0.9-0.2c-0.4-0.1-0.7-0.1-1-0.2c-0.3-0.1-0.6-0.1-1-0.2c0,0,0,0,0,0c-0.2,0-0.5-0.1-0.7-0.1
								c-2.2-0.5-3.7-0.9-4.2-1.1L37.5,76c5.8,2.1,12,3.1,18.4,3.1c10.2,0,17.5-2.7,18.6-3.1L73,69.6C71.7,70.1,70.3,70.5,68.8,70.8
								z"/>
						</g>
					</g>
				</g>
				<g>
					<g>
						<g>
							<path fill="#F7941E" d="M76.8,69.6c0.7-1.5,0.6-4.2,0.6-4.2c-3.3,2.2-6.2,2.4-6.2,2.4l2.5,0.8l1.1,5.3
								c2.3,0.1,4.5-1.6,4.5-1.6C79,71.8,76.8,69.6,76.8,69.6z"/>
						</g>
					</g>
				</g>
				<g>
					<g>
						<g>
							<path fill="#F7941E" d="M40.6,67.9c0,0-2.9-0.2-6.2-2.4c0,0-0.1,2.6,0.6,4.2c0,0-2.2,2.2-2.4,2.7c0,0,2.1,1.7,4.5,1.6
								l1.1-5.3L40.6,67.9z"/>
						</g>
					</g>
				</g>
			</g>
			<g>
				<g>
					<path fill="#726658" d="M46.5,73.9c0,0.1,0.1,0.2,0.2,0.2c0.3,0.1,0.5-0.1,0.6-0.4c0.2-0.6-0.4-0.8-0.7-0.9
						c-0.7-0.2-1.4,0.1-1.5,0.7c-0.2,0.8,0.8,1.5,0.6,2.4c-0.1,0.5-0.5,0.7-0.8,0.6c-0.3-0.1-0.5-0.4-0.4-0.7
						c0.1-0.4,0.5-0.4,0.8-0.4c0.1-0.3-0.2-0.4-0.4-0.5c-0.4-0.1-0.9,0.1-1,0.7c-0.2,0.7,0.3,1.1,0.9,1.3c0.8,0.2,1.6-0.1,1.9-1
						c0.3-1.2-0.9-1.7-0.7-2.5c0.1-0.3,0.3-0.5,0.6-0.4c0.3,0.1,0.4,0.3,0.3,0.5C46.8,73.6,46.6,73.8,46.5,73.9z"/>
				</g>
				<g>
					<path fill="#726658" d="M48.2,74.2c0.2,0,0.5-0.1,0.5-0.4c0-0.3-0.1-0.5-0.4-0.5c-0.2,0-0.5,0.1-0.5,0.4
						C47.8,73.9,48,74.1,48.2,74.2z"/>
				</g>
				<g>
					<path fill="#726658" d="M55.6,75.7c0-0.3-0.1-0.6-0.6-0.6c-1.1,0-1.5,1.2-1.5,1.9c-0.3,0.3-0.6,0.5-1,0.5
						c-0.3,0-0.4-0.1-0.4-0.5c0-0.6,0.5-1.7,0.8-1.7c0.1,0,0.2,0.1,0.1,0.2c0,0.1,0,0.2-0.1,0.3C53,76,53.1,76,53.1,76
						c0.2,0,0.3-0.1,0.3-0.4c0-0.3-0.1-0.5-0.6-0.6c-1.1-0.1-1.5,1.1-1.6,1.8l0,0c-0.2,0.3-0.3,0.5-0.5,0.4c-0.2,0-0.2-0.1-0.2-0.3
						c0-0.3,0.4-1,0.4-1.4c0.1-0.5-0.2-0.7-0.5-0.7c-0.2,0-0.4,0-0.7,0.2l0.1-0.3l-0.8-0.1l-0.6,1.8l-0.1,0
						c-0.1,0.3-0.4,0.4-0.6,0.4c-0.2,0-0.2-0.1-0.2-0.3c0-0.1,0-0.1,0.1-0.2l0.7-1.9l-0.8-0.2l-0.7,1.8c-0.1,0.1-0.1,0.3-0.1,0.4
						c-0.1,0.5,0.1,0.7,0.5,0.8c0.2,0,0.7,0,1.1-0.4l-0.2,0.6l0.8,0.1l0.6-1.8c0.1-0.3,0.3-0.5,0.5-0.5c0.1,0,0.2,0.1,0.2,0.3
						c0,0.4-0.4,1-0.4,1.4c0,0.3,0.1,0.7,0.6,0.7c0.2,0,0.6,0,0.9-0.5c0.1,0.5,0.4,0.7,0.8,0.7c0.6,0,1.1-0.3,1.4-0.7
						c0,0.6,0.4,0.8,0.8,0.8c0.4,0,0.8-0.2,1-0.8c-0.2,0.2-0.5,0.3-0.7,0.3c-0.2,0-0.3-0.1-0.3-0.5c0-0.1,0-0.1,0-0.2
						C55,76.8,55.6,76.3,55.6,75.7z M55,75.4c0.1,0,0.1,0.1,0.1,0.2c0,0.5-0.4,0.9-0.8,0.9C54.5,76,54.7,75.4,55,75.4z"/>
				</g>
				<g>
					<path fill="#726658" d="M57.1,74.4l0.5,0L57,78l0.8,0l0.7-4.4c-0.7,0.5-1.1,0.5-1.4,0.5L57.1,74.4z"/>
				</g>
				<g>
					<path fill="#726658" d="M60.7,75.4c0.5-0.3,0.7-0.8,0.7-1.2c0-0.4-0.4-0.8-1.1-0.7c-0.7,0.1-1.2,0.7-1.1,1.3
						c0,0.3,0.2,0.6,0.5,0.7c-0.7,0.3-0.9,0.9-0.9,1.4c0.1,0.6,0.5,1.1,1.3,1c0.9-0.1,1.5-1,1.4-1.7C61.4,75.8,61.2,75.5,60.7,75.4z
						 M60,77.5c-0.3,0-0.4-0.2-0.4-0.5c0-0.4,0.1-1,0.6-1.3c0.3,0.2,0.4,0.5,0.4,0.8C60.6,77,60.4,77.5,60,77.5z M60.2,75.3
						c-0.2-0.2-0.3-0.4-0.4-0.7c0-0.4,0.1-0.8,0.5-0.8c0.2,0,0.3,0.1,0.3,0.4C60.7,74.5,60.5,75,60.2,75.3z"/>
				</g>
				<g>
					<path fill="#726658" d="M63.5,74.7c-0.4,0-0.8,0.3-0.7,0.7c0,0.1,0.1,0.2,0.1,0.3c0.1-0.3,0.2-0.5,0.4-0.5
						c0.2,0,0.3,0.3,0.3,0.5c0.1,0.6-0.3,1.3-0.7,1.3c-0.3,0-0.4,0-0.5-0.6c0-0.1,0-0.3,0-0.4c0-2.4,0.8-2.6,1-2.6
						c0.2,0,0.3,0.1,0.3,0.3c0,0.1,0,0.2-0.1,0.2c0.3,0,0.5-0.2,0.5-0.4c0-0.2-0.3-0.5-0.7-0.4c-1.2,0.1-1.8,1.4-1.7,3.2
						c0,0.1,0,0.1,0,0.2c0.1,0.6,0.3,1.1,1.2,1c0.8-0.1,1.4-0.9,1.3-1.9C64.3,75.1,64,74.6,63.5,74.7z"/>
				</g>
				<g>
					<path fill="#726658" d="M67.5,75.3c-0.1-0.4-0.3-0.7-0.9-0.8c0.5-0.4,0.6-0.8,0.6-1.2c-0.1-0.5-0.5-0.8-1.2-0.7
						c-0.6,0.1-1.1,0.6-1,1.1c0.1,0.3,0.3,0.5,0.5,0.4c0.1,0,0.3-0.1,0.4-0.3c-0.2,0-0.3-0.2-0.3-0.4c0-0.3,0.1-0.5,0.4-0.5
						c0.3-0.1,0.5,0.1,0.5,0.4c0.1,0.4-0.2,1-0.8,1.3c0.6,0.1,0.9,0.5,0.9,1c0.1,0.5-0.1,1-0.6,1.1c-0.2,0-0.4,0-0.5-0.4
						c0-0.2,0-0.6,0.4-0.7c-0.1-0.2-0.3-0.3-0.5-0.2c-0.4,0.1-0.6,0.5-0.5,1c0.2,0.9,1,0.8,1.3,0.8C67.1,76.9,67.6,76,67.5,75.3z"/>
				</g>
			</g>
			<path fill="#F5F6F6" d="M38.8,71.9l0.3-1.4c0,0,1.1,0.4,1.9,0.5c0,0-1,0.2-1.7-0.1L38.8,71.9z"/>
			<path fill="#F5F6F6" d="M34.2,72.9c0,0-0.7-0.1-1.2-0.6c0,0,0.4-0.7,1-0.9l-0.7,0.9L34.2,72.9z"/>
			<path fill="#F5F6F6" d="M72.9,71.9l-0.3-1.4c0,0-1.1,0.4-1.9,0.5c0,0,1,0.2,1.7-0.1L72.9,71.9z"/>
			<path fill="#F5F6F6" d="M77.4,72.8c0,0,0.7-0.1,1.2-0.6c0,0-0.4-0.7-1-0.9l0.7,0.9L77.4,72.8z"/>
		</g>
		<g>
			<polygon fill="#F15A29" points="85.3,68.8 85.3,69.5 81.6,69.5 81.6,69 			"/>
			<polygon fill="#F15A29" points="90.2,65.8 90.2,68.3 86.4,68.6 86.4,68 85.3,68 85.3,68.7 81.6,69 81.6,65.8 85.3,65.8 
				85.3,67.1 86.4,67.1 86.4,65.8 			"/>
			<polygon fill="#F15A29" points="90.2,68.4 90.2,69.5 86.4,69.5 86.4,68.7 			"/>
			<path fill="#F15A29" d="M100.5,65.8H97l-1.7,1.5v-1.5h-3.7v2.4l6.9-0.5l-0.2-0.1L100.5,65.8z M91.6,68.4v1.2h3.7v-1.4L91.6,68.4z
				 M101.3,68.2v1.3h3.2l0-1.5L101.3,68.2z M101.3,67.7v0.4l3.3-0.2v0l0-0.4L101.3,67.7z M107.2,67.4l-0.1,0.2l-0.1-0.2l-2.2,0.1
				l0.2,0.4l0,0l4.2-0.2l0,0l0.2-0.4L107.2,67.4z M109.6,67.2l0,0.4v0l3.3-0.2V67L109.6,67.2z M109.6,67.9l0,1.6h3.2v-1.8
				L109.6,67.9z M108,65.8l-0.6,1.1l5.4-0.4v-0.7H108z M106.6,66.6c-0.2-0.3-0.3-0.6-0.4-0.8h-4.8v1.6l3.3-0.3l0,0l2.2-0.2
				L106.6,66.6z M105.1,68.1l0.8,1.5h2.3l0.8-1.6L105.1,68.1z M99.3,68.3l-3.5,0.1l1.1,1.1h3.8L99.3,68.3z M99.2,68.2l-0.3-0.3
				l-3.3,0.2l0.3,0.3l0,0L99.2,68.2L99.2,68.2z"/>
			<polygon fill="#F15A29" points="85.3,68.8 85.3,69.5 81.6,69.5 81.6,69 			"/>
			<polygon fill="#F15A29" points="90.2,65.8 90.2,68.3 86.4,68.6 86.4,68 85.3,68 85.3,68.7 81.6,69 81.6,65.8 85.3,65.8 
				85.3,67.1 86.4,67.1 86.4,65.8 			"/>
			<polygon fill="#F15A29" points="90.2,68.4 90.2,69.5 86.4,69.5 86.4,68.7 			"/>
			<polygon fill="#F15A29" points="95.4,68.1 95.4,69.5 91.6,69.5 91.6,68.4 			"/>
			<polygon fill="#F15A29" points="98.4,67.5 98.5,67.6 91.6,68.2 91.6,65.8 95.4,65.8 95.4,67.2 97,65.8 100.5,65.8 			"/>
			<polygon fill="#F15A29" points="99.2,68.2 95.8,68.4 95.8,68.4 95.5,68.1 98.8,67.9 99.2,68.2 			"/>
			<polygon fill="#F15A29" points="100.7,69.5 96.9,69.5 95.8,68.4 99.3,68.3 			"/>
			<polygon fill="#F15A29" points="104.6,68.1 104.6,69.5 101.3,69.5 101.3,68.2 			"/>
			<polygon fill="#F15A29" points="109.1,67.9 108.3,69.5 106,69.5 105.1,68.1 			"/>
			<polygon fill="#F15A29" points="104.6,67.5 104.6,67.9 104.6,67.9 101.3,68.1 101.3,67.7 			"/>
			<path fill="#F15A29" d="M106.8,67l-2.2,0.2l0-0.1v0.1l-3.3,0.3v-1.6h4.8c0.1,0.2,0.3,0.5,0.4,0.8L106.8,67z"/>
			<polygon fill="#F15A29" points="109.4,67.2 109.2,67.7 109.2,67.7 105.1,67.9 105.1,67.9 104.9,67.5 107,67.4 107.1,67.5 
				107.2,67.4 			"/>
			<polygon fill="#F15A29" points="112.8,65.8 112.8,66.5 107.4,66.9 108,65.8 			"/>
			<polygon fill="#F15A29" points="112.8,67 112.8,67.5 109.6,67.7 109.6,67.7 109.6,67.2 			"/>
			<polygon fill="#F15A29" points="112.8,67.8 112.8,69.5 109.6,69.5 109.6,67.9 			"/>
			<polygon fill="#F15A29" points="95.4,68.4 95.4,68.4 94.4,68.5 			"/>
			<polygon fill="#F15A29" points="99.2,68.2 95.8,68.4 95.8,68.4 99.2,68.2 			"/>
			<rect x="101.3" y="68" fill="#F15A29" width="3.3" height="0"/>
			<polygon fill="#F15A29" points="109.2,67.7 109.2,67.7 105.1,67.9 105.1,67.9 			"/>
			<polygon fill="#F15A29" points="112.8,67.5 109.6,67.7 109.6,67.7 			"/>
		</g>
	</g>
</g>
</svg>
