<?xml version="1.0" encoding="utf-8"?>
<!-- Generator: Adobe Illustrator 14.0.0, SVG Export Plug-In . SVG Version: 6.00 Build 43363)  -->
<!DOCTYPE svg PUBLIC "-//W3C//DTD SVG 1.1//EN" "http://www.w3.org/Graphics/SVG/1.1/DTD/svg11.dtd">
<svg version="1.1" id="Layer_1" xmlns="http://www.w3.org/2000/svg" xmlns:xlink="http://www.w3.org/1999/xlink" x="0px" y="0px"
	 width="1758px" height="1760px" viewBox="0 0 1758 1760" enable-background="new 0 0 1758 1760" xml:space="preserve">
<g>
	<rect x="1131.162" y="282.839" fill="#4D4D4D" width="249.832" height="249.832"/>
	<rect x="1250.91" y="386.255" fill="#E6E6E6" width="10.334" height="43"/>
	<g>
		<rect x="1155.911" y="82.755" fill="#4D4D4D" width="200" height="200"/>
		<rect x="1131.077" y="257.754" fill="#C1272D" width="25" height="25"/>
		<rect x="1131.077" y="82.754" fill="#E6E6E6" width="25" height="25"/>
		<rect x="1131.077" y="107.754" fill="#C1272D" width="25" height="25"/>
		<rect x="1131.077" y="132.754" fill="#E6E6E6" width="25" height="25.001"/>
		<rect x="1131.077" y="157.755" fill="#C1272D" width="25" height="25"/>
		<rect x="1131.077" y="182.755" fill="#E6E6E6" width="25" height="25"/>
		<rect x="1131.077" y="207.755" fill="#C1272D" width="25" height="24.999"/>
		<rect x="1131.077" y="232.754" fill="#E6E6E6" width="25" height="25"/>
		<rect x="1355.911" y="82.754" fill="#C1272D" width="25" height="25.001"/>
		<rect x="1355.911" y="257.755" fill="#E6E6E6" width="25" height="25"/>
		<rect x="1355.911" y="232.754" fill="#C1272D" width="25" height="25.001"/>
		<rect x="1355.911" y="207.754" fill="#E6E6E6" width="25" height="25"/>
		<rect x="1355.911" y="182.754" fill="#C1272D" width="25" height="25"/>
		<rect x="1355.911" y="157.754" fill="#E6E6E6" width="25" height="25"/>
		<rect x="1355.911" y="132.754" fill="#C1272D" width="24.999" height="25"/>
		<rect x="1355.911" y="107.755" fill="#E6E6E6" width="25" height="24.999"/>
		<rect x="1250.743" y="161.255" fill="#E6E6E6" width="10.334" height="43"/>
	</g>
	<g>
		<rect x="931.16" y="307.671" fill="#4D4D4D" width="200" height="200"/>
		<rect x="931.161" y="282.837" fill="#C1272D" width="25" height="25"/>
		<rect x="1106.161" y="282.837" fill="#E6E6E6" width="25" height="25"/>
		<rect x="1081.161" y="282.837" fill="#C1272D" width="25" height="25"/>
		<rect x="1056.16" y="282.837" fill="#E6E6E6" width="25.001" height="25"/>
		<rect x="1031.16" y="282.837" fill="#C1272D" width="25" height="25"/>
		<rect x="1006.16" y="282.837" fill="#E6E6E6" width="25" height="25"/>
		<rect x="981.161" y="282.837" fill="#C1272D" width="24.999" height="25"/>
		<rect x="956.161" y="282.837" fill="#E6E6E6" width="25" height="25"/>
		<rect x="1106.16" y="507.671" fill="#C1272D" width="25.001" height="25"/>
		<rect x="931.16" y="507.671" fill="#E6E6E6" width="25" height="25"/>
		<rect x="956.16" y="507.671" fill="#C1272D" width="25.001" height="25"/>
		<rect x="981.161" y="507.671" fill="#E6E6E6" width="25" height="25"/>
		<rect x="1006.161" y="507.671" fill="#C1272D" width="25" height="25"/>
		<rect x="1031.161" y="507.671" fill="#E6E6E6" width="25" height="25"/>
		<rect x="1056.161" y="507.672" fill="#C1272D" width="25" height="24.998"/>
		<rect x="1081.161" y="507.672" fill="#E6E6E6" width="24.999" height="25"/>
		<rect x="1009.66" y="402.503" fill="#E6E6E6" width="43" height="10.334"/>
	</g>
	<g>
		<rect x="1131.244" y="282.837" fill="#E6E6E6" width="25" height="25"/>
		<g>
			<polygon fill="#C1272D" points="1131.077,282.837 1131.077,282.838 1131.078,282.837 			"/>
			<polygon fill="#C1272D" points="1131.077,282.838 1131.077,307.838 1156.077,307.838 1156.077,307.837 			"/>
		</g>
	</g>
	<g>
		<rect x="1355.911" y="282.921" fill="#E6E6E6" width="25" height="25"/>
		<g>
			<polygon fill="#C1272D" points="1380.911,282.754 1380.911,282.754 1380.911,282.755 			"/>
			<polygon fill="#C1272D" points="1380.911,282.754 1355.911,282.754 1355.911,307.754 1355.911,307.754 			"/>
		</g>
	</g>
	<g>
		<rect x="1131.243" y="507.588" fill="#E6E6E6" width="25" height="25"/>
		<g>
			<polygon fill="#C1272D" points="1131.243,532.755 1131.244,532.755 1131.243,532.754 			"/>
			<polygon fill="#C1272D" points="1131.244,532.755 1156.244,532.755 1156.244,507.755 1156.243,507.755 			"/>
		</g>
	</g>
	<g>
		<rect x="1355.827" y="507.588" fill="#E6E6E6" width="25" height="25"/>
		<g>
			<polygon fill="#C1272D" points="1380.994,532.589 1380.994,532.588 1380.993,532.589 			"/>
			<polygon fill="#C1272D" points="1380.994,532.588 1380.994,507.588 1355.994,507.588 1355.994,507.588 			"/>
		</g>
	</g>
	<g>
		<rect x="1380.993" y="307.672" fill="#4D4D4D" width="200.001" height="200"/>
		<rect x="1380.995" y="282.838" fill="#C1272D" width="24.999" height="25"/>
		<rect x="1555.994" y="282.838" fill="#E6E6E6" width="25" height="25"/>
		<rect x="1530.994" y="282.838" fill="#C1272D" width="25" height="25"/>
		<rect x="1505.994" y="282.838" fill="#E6E6E6" width="25" height="25"/>
		<rect x="1480.994" y="282.838" fill="#C1272D" width="25" height="25"/>
		<rect x="1455.994" y="282.838" fill="#E6E6E6" width="25" height="25"/>
		<rect x="1430.994" y="282.838" fill="#C1272D" width="25" height="25"/>
		<rect x="1405.994" y="282.838" fill="#E6E6E6" width="25" height="25"/>
		<rect x="1555.994" y="507.672" fill="#C1272D" width="25" height="25"/>
		<rect x="1380.993" y="507.672" fill="#E6E6E6" width="25.001" height="25"/>
		<rect x="1405.994" y="507.672" fill="#C1272D" width="25" height="25"/>
		<rect x="1430.994" y="507.672" fill="#E6E6E6" width="25" height="25"/>
		<rect x="1455.994" y="507.672" fill="#C1272D" width="25" height="25"/>
		<rect x="1480.994" y="507.672" fill="#E6E6E6" width="25" height="25"/>
		<rect x="1505.994" y="507.673" fill="#C1272D" width="25" height="24.998"/>
		<rect x="1530.994" y="507.673" fill="#E6E6E6" width="25" height="25"/>
		<rect x="1459.494" y="402.504" fill="#E6E6E6" width="43" height="10.334"/>
	</g>
	<g>
		<rect x="1155.995" y="532.756" fill="#4D4D4D" width="200" height="200"/>
		<rect x="1131.161" y="707.755" fill="#C1272D" width="25" height="25"/>
		<rect x="1131.161" y="532.755" fill="#E6E6E6" width="25" height="25"/>
		<rect x="1131.161" y="557.755" fill="#C1272D" width="25" height="25"/>
		<rect x="1131.161" y="582.755" fill="#E6E6E6" width="25" height="25.001"/>
		<rect x="1131.161" y="607.756" fill="#C1272D" width="25" height="25"/>
		<rect x="1131.161" y="632.756" fill="#E6E6E6" width="25" height="25"/>
		<rect x="1131.161" y="657.756" fill="#C1272D" width="25" height="24.999"/>
		<rect x="1131.161" y="682.755" fill="#E6E6E6" width="25" height="25"/>
		<rect x="1355.995" y="532.755" fill="#C1272D" width="25" height="25.001"/>
		<rect x="1355.995" y="707.756" fill="#E6E6E6" width="25" height="25"/>
		<rect x="1355.995" y="682.755" fill="#C1272D" width="25" height="25.001"/>
		<rect x="1355.995" y="657.755" fill="#E6E6E6" width="25" height="25"/>
		<rect x="1355.995" y="632.755" fill="#C1272D" width="25" height="25"/>
		<rect x="1355.995" y="607.755" fill="#E6E6E6" width="25" height="25"/>
		<rect x="1355.995" y="582.755" fill="#C1272D" width="24.999" height="25"/>
		<rect x="1355.995" y="557.756" fill="#E6E6E6" width="25" height="24.999"/>
		<rect x="1250.827" y="611.256" fill="#E6E6E6" width="10.334" height="43"/>
	</g>
	<rect x="1234.579" y="402.591" fill="#E6E6E6" width="43" height="10.334"/>
</g>
<g>
	<g>
		<g>
			<g>
				<rect x="398.777" y="543.721" fill="#4D4D4D" width="200" height="200"/>
				<rect x="398.778" y="518.887" fill="#C1272D" width="25" height="25"/>
				<rect x="573.778" y="518.887" fill="#E6E6E6" width="25" height="25"/>
				<rect x="548.778" y="518.887" fill="#C1272D" width="25" height="25"/>
				<rect x="523.777" y="518.887" fill="#E6E6E6" width="25.001" height="25"/>
				<rect x="498.777" y="518.887" fill="#C1272D" width="25" height="25"/>
				<rect x="473.778" y="518.888" fill="#E6E6E6" width="25" height="24.999"/>
				<rect x="448.778" y="518.888" fill="#C1272D" width="24.999" height="24.999"/>
				<rect x="423.778" y="518.887" fill="#E6E6E6" width="25" height="25"/>
				<rect x="573.777" y="743.721" fill="#C1272D" width="25.001" height="25"/>
				<rect x="398.777" y="743.721" fill="#E6E6E6" width="25" height="25"/>
				<rect x="423.777" y="743.721" fill="#C1272D" width="25.001" height="25"/>
				<rect x="448.778" y="743.721" fill="#E6E6E6" width="25" height="25"/>
				<rect x="473.778" y="743.721" fill="#C1272D" width="25" height="25"/>
				<rect x="498.778" y="743.721" fill="#E6E6E6" width="25" height="25"/>
				<rect x="523.778" y="743.721" fill="#C1272D" width="25" height="24.999"/>
				<rect x="548.778" y="743.721" fill="#E6E6E6" width="24.999" height="25"/>
				<rect x="477.277" y="638.554" fill="#E6E6E6" width="43" height="10.333"/>
			</g>
			<g>
				<path fill="#4D4D4D" d="M398.777,743.722c-62.977,0.385-126.416-25.9-170.643-70.684
					c-44.782-44.228-71.066-107.666-70.682-170.642h200c-0.696,21.978,19.348,42.021,41.324,41.324V743.722z"/>
				<path fill="#C1272D" d="M358.099,510.598c-0.522-2.631-0.798-5.348-0.812-8.201l25,0.001c0.014,1.251,0.134,2.331,0.336,3.349
					L358.099,510.598z"/>
				<path fill="#E6E6E6" d="M398.777,543.887c-2.854-0.014-5.569-0.289-8.2-0.811l4.852-24.525c1.017,0.203,2.097,0.322,3.349,0.336
					V543.887z"/>
				<path fill="#C1272D" d="M390.577,543.076c-2.63-0.523-5.176-1.295-7.646-2.317l9.575-23.093c0.95,0.391,1.907,0.681,2.923,0.885
					L390.577,543.076z"/>
				<path fill="#E6E6E6" d="M382.931,540.759c-2.469-1.022-4.859-2.297-7.128-3.812l13.908-20.774
					c0.91,0.605,1.849,1.102,2.795,1.493L382.931,540.759z"/>
				<path fill="#C1272D" d="M375.803,536.947c-2.268-1.514-4.41-3.267-6.363-5.213l17.678-17.677
					c0.803,0.796,1.684,1.511,2.594,2.115L375.803,536.947z"/>
				<path fill="#E6E6E6" d="M369.439,531.734c-1.945-1.952-3.699-4.095-5.213-6.362l20.774-13.908
					c0.604,0.91,1.319,1.79,2.116,2.594L369.439,531.734z"/>
				<path fill="#C1272D" d="M364.227,525.372c-1.514-2.269-2.789-4.659-3.811-7.129l23.093-9.575
					c0.392,0.947,0.888,1.885,1.492,2.796L364.227,525.372z"/>
				<path fill="#E6E6E6" d="M360.416,518.243c-1.023-2.47-1.795-5.016-2.317-7.646l24.524-4.852
					c0.204,1.016,0.494,1.973,0.886,2.922L360.416,518.243z"/>
				<path fill="#C1272D" d="M351.797,739.11c15.527,3.077,31.322,4.601,46.981,4.611l0.001,24.999
					c-17.262-0.009-34.693-1.688-51.833-5.085L351.797,739.11z"/>
				<path fill="#E6E6E6" d="M157.453,502.396c0.01,15.659,1.533,31.453,4.61,46.98l-24.524,4.852
					c-3.396-17.141-5.077-34.571-5.085-51.833L157.453,502.396z"/>
				<path fill="#C1272D" d="M162.063,549.377c3.072,15.528,7.692,30.783,13.759,45.411l-23.094,9.576
					c-6.698-16.149-11.799-32.994-15.19-50.136L162.063,549.377z"/>
				<path fill="#E6E6E6" d="M175.823,594.788c6.064,14.632,13.569,28.638,22.348,41.754l-20.774,13.908
					c-9.688-14.474-17.972-29.933-24.667-46.086L175.823,594.788z"/>
				<path fill="#C1272D" d="M198.171,636.542c8.778,13.119,18.827,25.353,29.965,36.497l-17.679,17.677
					c-12.287-12.293-23.374-25.789-33.061-40.266L198.171,636.542z"/>
				<path fill="#E6E6E6" d="M228.136,673.039c11.144,11.138,23.377,21.187,36.496,29.965l-13.908,20.774
					c-14.477-9.687-27.972-20.774-40.266-33.062L228.136,673.039z"/>
				<path fill="#C1272D" d="M264.632,703.004c13.117,8.778,27.123,16.284,41.754,22.348l-9.576,23.094
					c-16.153-6.695-31.612-14.979-46.086-24.667L264.632,703.004z"/>
				<path fill="#E6E6E6" d="M306.386,725.352c14.628,6.067,29.883,10.688,45.411,13.759l-4.851,24.525
					c-17.142-3.391-33.986-8.493-50.136-15.19L306.386,725.352z"/>
				<path fill="#E6E6E6" d="M279.283,587.083c9.512,13.471,21.337,25.296,34.809,34.809l5.981-8.426
					c-12.524-8.841-23.524-19.841-32.364-32.364L279.283,587.083z"/>
			</g>
		</g>
		<g>
			<g>
				<rect x="157.454" y="302.396" fill="#4D4D4D" width="200" height="200"/>
				<rect x="357.287" y="302.396" fill="#C1272D" width="25" height="25"/>
				<rect x="357.287" y="477.396" fill="#E6E6E6" width="25" height="25"/>
				<rect x="357.287" y="452.396" fill="#C1272D" width="25" height="25"/>
				<rect x="357.287" y="427.396" fill="#E6E6E6" width="25" height="25.001"/>
				<rect x="357.287" y="402.396" fill="#C1272D" width="25" height="25"/>
				<rect x="357.287" y="377.396" fill="#E6E6E6" width="25" height="25"/>
				<rect x="357.287" y="352.396" fill="#C1272D" width="25" height="24.999"/>
				<rect x="357.287" y="327.396" fill="#E6E6E6" width="25" height="25"/>
				<rect x="132.454" y="477.396" fill="#C1272D" width="25" height="25.001"/>
				<rect x="132.454" y="302.396" fill="#E6E6E6" width="25" height="25"/>
				<rect x="132.454" y="327.396" fill="#C1272D" width="25" height="25.001"/>
				<rect x="132.454" y="352.396" fill="#E6E6E6" width="25" height="25"/>
				<rect x="132.454" y="377.396" fill="#C1272D" width="25" height="25"/>
				<rect x="132.454" y="402.396" fill="#E6E6E6" width="25" height="25"/>
				<rect x="132.454" y="427.396" fill="#C1272D" width="24.999" height="25"/>
				<rect x="132.453" y="452.396" fill="#E6E6E6" width="25" height="24.999"/>
				<rect x="252.288" y="380.896" fill="#E6E6E6" width="10.333" height="43"/>
			</g>
			<g>
				<path fill="#4D4D4D" d="M157.453,302.395c-0.385-62.976,25.9-126.415,70.684-170.642
					c44.228-44.782,107.666-71.066,170.641-70.682v200c-21.977-0.696-42.021,19.347-41.324,41.324L157.453,302.395z"/>
				<path fill="#C1272D" d="M390.576,261.717c2.631-0.522,5.348-0.798,8.201-0.812v25c-1.252,0.014-2.332,0.134-3.35,0.336
					L390.576,261.717z"/>
				<path fill="#E6E6E6" d="M357.287,302.396c0.014-2.854,0.289-5.569,0.811-8.2l24.525,4.852c-0.203,1.017-0.322,2.097-0.336,3.349
					H357.287z"/>
				<path fill="#C1272D" d="M358.098,294.195c0.523-2.63,1.295-5.176,2.318-7.646l23.092,9.575c-0.391,0.95-0.68,1.907-0.885,2.923
					L358.098,294.195z"/>
				<path fill="#E6E6E6" d="M360.416,286.549c1.021-2.469,2.297-4.859,3.811-7.128l20.775,13.907
					c-0.605,0.911-1.102,1.85-1.494,2.796L360.416,286.549z"/>
				<path fill="#C1272D" d="M364.227,279.421c1.514-2.268,3.268-4.41,5.213-6.363l17.678,17.678
					c-0.797,0.803-1.512,1.683-2.115,2.593L364.227,279.421z"/>
				<path fill="#E6E6E6" d="M369.439,273.058c1.953-1.946,4.096-3.699,6.363-5.213l13.908,20.774
					c-0.91,0.604-1.791,1.319-2.594,2.116L369.439,273.058z"/>
				<path fill="#C1272D" d="M375.803,267.845c2.268-1.515,4.658-2.789,7.129-3.812l9.574,23.094
					c-0.947,0.391-1.885,0.887-2.795,1.492L375.803,267.845z"/>
				<path fill="#E6E6E6" d="M382.932,264.033c2.469-1.022,5.016-1.794,7.645-2.316l4.852,24.524
					c-1.016,0.204-1.973,0.494-2.922,0.886L382.932,264.033z"/>
				<path fill="#C1272D" d="M162.064,255.415c-3.077,15.527-4.601,31.321-4.611,46.981h-24.999
					c0.009-17.261,1.688-34.692,5.085-51.832L162.064,255.415z"/>
				<path fill="#E6E6E6" d="M398.777,61.071c-15.658,0.01-31.453,1.533-46.98,4.61l-4.852-24.524
					c17.14-3.396,34.572-5.077,51.833-5.086L398.777,61.071z"/>
				<path fill="#C1272D" d="M351.797,65.682c-15.528,3.071-30.783,7.692-45.411,13.759l-9.576-23.094
					c16.149-6.697,32.994-11.799,50.136-15.189L351.797,65.682z"/>
				<path fill="#E6E6E6" d="M306.386,79.44c-14.632,6.064-28.638,13.569-41.754,22.349l-13.908-20.774
					c14.474-9.688,29.933-17.973,46.086-24.668L306.386,79.44z"/>
				<path fill="#C1272D" d="M264.632,101.789c-13.119,8.777-25.353,18.826-36.497,29.965l-17.677-17.679
					c12.293-12.287,25.789-23.374,40.266-33.061L264.632,101.789z"/>
				<path fill="#E6E6E6" d="M228.135,131.754c-11.138,11.144-21.187,23.377-29.965,36.496l-20.774-13.908
					c9.687-14.477,20.774-27.972,33.062-40.266L228.135,131.754z"/>
				<path fill="#C1272D" d="M198.17,168.25c-8.778,13.116-16.284,27.123-22.348,41.754l-23.094-9.576
					c6.695-16.152,14.979-31.611,24.667-46.086L198.17,168.25z"/>
				<path fill="#E6E6E6" d="M175.823,210.004c-6.067,14.629-10.688,29.883-13.759,45.411l-24.525-4.851
					c3.391-17.143,8.493-33.986,15.19-50.137L175.823,210.004z"/>
				<path fill="#E6E6E6" d="M314.091,182.9c-13.471,9.513-25.296,21.338-34.809,34.809l8.426,5.981
					c8.841-12.524,19.841-23.523,32.364-32.364L314.091,182.9z"/>
			</g>
		</g>
	</g>
	<g>
		<g>
			<rect x="398.781" y="61.071" fill="#4D4D4D" width="200" height="200"/>
			<rect x="573.779" y="260.905" fill="#C1272D" width="25" height="25"/>
			<rect x="398.779" y="260.905" fill="#E6E6E6" width="25" height="25"/>
			<rect x="423.779" y="260.905" fill="#C1272D" width="25" height="25"/>
			<rect x="448.779" y="260.905" fill="#E6E6E6" width="25.002" height="25"/>
			<rect x="473.781" y="260.905" fill="#C1272D" width="25" height="25"/>
			<rect x="498.78" y="260.905" fill="#E6E6E6" width="25" height="25"/>
			<rect x="523.781" y="260.905" fill="#C1272D" width="24.998" height="25"/>
			<rect x="548.779" y="260.905" fill="#E6E6E6" width="25" height="25"/>
			<rect x="398.779" y="36.071" fill="#C1272D" width="25.002" height="25"/>
			<rect x="573.781" y="36.071" fill="#E6E6E6" width="25" height="25"/>
			<rect x="548.779" y="36.071" fill="#C1272D" width="25.002" height="25"/>
			<rect x="523.779" y="36.071" fill="#E6E6E6" width="25" height="25"/>
			<rect x="498.779" y="36.071" fill="#C1272D" width="25" height="25"/>
			<rect x="473.779" y="36.071" fill="#E6E6E6" width="25" height="25"/>
			<rect x="448.779" y="36.072" fill="#C1272D" width="25" height="24.999"/>
			<rect x="423.781" y="36.071" fill="#E6E6E6" width="24.998" height="25"/>
			<rect x="477.281" y="155.905" fill="#E6E6E6" width="43" height="10.333"/>
		</g>
		<g>
			<path fill="#4D4D4D" d="M598.781,61.07c62.977-0.385,126.416,25.9,170.643,70.684c44.781,44.228,71.066,107.666,70.682,170.642
				h-200c0.695-21.977-19.348-42.021-41.324-41.324V61.07z"/>
			<path fill="#C1272D" d="M639.459,294.194c0.523,2.631,0.799,5.348,0.812,8.201h-25c-0.014-1.252-0.135-2.332-0.336-3.35
				L639.459,294.194z"/>
			<path fill="#E6E6E6" d="M598.781,260.905c2.854,0.014,5.568,0.289,8.199,0.811l-4.852,24.525
				c-1.016-0.203-2.096-0.322-3.348-0.336V260.905z"/>
			<path fill="#C1272D" d="M606.98,261.716c2.631,0.523,5.176,1.295,7.646,2.317l-9.574,23.093c-0.951-0.391-1.908-0.68-2.924-0.885
				L606.98,261.716z"/>
			<path fill="#E6E6E6" d="M614.627,264.033c2.469,1.022,4.859,2.297,7.129,3.812l-13.908,20.775
				c-0.91-0.605-1.85-1.102-2.795-1.494L614.627,264.033z"/>
			<path fill="#C1272D" d="M621.756,267.845c2.268,1.514,4.41,3.267,6.363,5.213l-17.678,17.678
				c-0.803-0.797-1.684-1.512-2.594-2.115L621.756,267.845z"/>
			<path fill="#E6E6E6" d="M628.119,273.058c1.945,1.953,3.699,4.096,5.213,6.363l-20.775,13.908
				c-0.604-0.91-1.318-1.791-2.115-2.594L628.119,273.058z"/>
			<path fill="#C1272D" d="M633.332,279.421c1.514,2.268,2.789,4.658,3.811,7.129l-23.094,9.574
				c-0.391-0.947-0.887-1.885-1.492-2.795L633.332,279.421z"/>
			<path fill="#E6E6E6" d="M637.143,286.55c1.023,2.469,1.795,5.016,2.316,7.645l-24.523,4.852
				c-0.205-1.016-0.494-1.973-0.887-2.922L637.143,286.55z"/>
			<path fill="#C1272D" d="M645.762,65.682c-15.527-3.077-31.322-4.601-46.982-4.611V36.071c17.262,0.009,34.693,1.688,51.832,5.085
				L645.762,65.682z"/>
			<path fill="#E6E6E6" d="M840.106,302.396c-0.01-15.658-1.533-31.453-4.611-46.98l24.525-4.852
				c3.397,17.141,5.077,34.572,5.086,51.834L840.106,302.396z"/>
			<path fill="#C1272D" d="M835.495,255.415c-3.07-15.528-7.691-30.783-13.758-45.411l23.094-9.576
				c6.697,16.149,11.799,32.994,15.189,50.136L835.495,255.415z"/>
			<path fill="#E6E6E6" d="M821.737,210.004c-6.064-14.632-13.57-28.638-22.35-41.754l20.775-13.908
				c9.688,14.474,17.973,29.933,24.668,46.086L821.737,210.004z"/>
			<path fill="#C1272D" d="M799.387,168.25c-8.777-13.119-18.826-25.353-29.965-36.497l17.68-17.677
				c12.287,12.293,23.373,25.789,33.061,40.266L799.387,168.25z"/>
			<path fill="#E6E6E6" d="M769.422,131.753c-11.143-11.138-23.377-21.187-36.497-29.965l13.909-20.774
				c14.477,9.687,27.973,20.774,40.266,33.062L769.422,131.753z"/>
			<path fill="#C1272D" d="M732.926,101.788c-13.115-8.778-27.123-16.284-41.754-22.348l9.576-23.094
				c16.152,6.695,31.611,14.979,46.086,24.667L732.926,101.788z"/>
			<path fill="#E6E6E6" d="M691.172,79.44c-14.629-6.067-29.883-10.688-45.41-13.759l4.85-24.525
				c17.143,3.391,33.986,8.493,50.137,15.19L691.172,79.44z"/>
			<path fill="#E6E6E6" d="M718.275,217.709c-9.512-13.471-21.338-25.296-34.809-34.809l-5.98,8.426
				c12.523,8.841,23.523,19.841,32.363,32.364L718.275,217.709z"/>
		</g>
	</g>
	<g>
		<g>
			<rect x="640.09" y="302.786" fill="#4D4D4D" width="200" height="200"/>
			<rect x="615.256" y="477.785" fill="#C1272D" width="25" height="25"/>
			<rect x="615.256" y="302.785" fill="#E6E6E6" width="25" height="25"/>
			<rect x="615.256" y="327.785" fill="#C1272D" width="25" height="25"/>
			<rect x="615.256" y="352.785" fill="#E6E6E6" width="25" height="25.001"/>
			<rect x="615.256" y="377.786" fill="#C1272D" width="25" height="25"/>
			<rect x="615.256" y="402.786" fill="#E6E6E6" width="25" height="25"/>
			<rect x="615.256" y="427.786" fill="#C1272D" width="25" height="24.999"/>
			<rect x="615.256" y="452.785" fill="#E6E6E6" width="25" height="25"/>
			<rect x="840.09" y="302.785" fill="#C1272D" width="25" height="25.001"/>
			<rect x="840.09" y="477.786" fill="#E6E6E6" width="25" height="25"/>
			<rect x="840.09" y="452.785" fill="#C1272D" width="25" height="25.001"/>
			<rect x="840.09" y="427.785" fill="#E6E6E6" width="25" height="25"/>
			<rect x="840.09" y="402.785" fill="#C1272D" width="25" height="25"/>
			<rect x="840.09" y="377.785" fill="#E6E6E6" width="25" height="25"/>
			<rect x="840.09" y="352.785" fill="#C1272D" width="25" height="25"/>
			<rect x="840.09" y="327.786" fill="#E6E6E6" width="25" height="24.999"/>
			<rect x="734.922" y="381.286" fill="#E6E6E6" width="10.334" height="43"/>
		</g>
		<g>
			<path fill="#4D4D4D" d="M840.09,502.787c0.385,62.976-25.9,126.415-70.684,170.642c-44.227,44.782-107.667,71.066-170.641,70.682
				v-200c21.977,0.696,42.021-19.347,41.324-41.324L840.09,502.787z"/>
			<path fill="#C1272D" d="M606.967,543.465c-2.631,0.522-5.348,0.798-8.201,0.812v-25c1.252-0.014,2.332-0.134,3.35-0.336
				L606.967,543.465z"/>
			<path fill="#E6E6E6" d="M640.256,502.786c-0.014,2.854-0.289,5.569-0.811,8.2l-24.525-4.852c0.203-1.017,0.322-2.097,0.336-3.349
				H640.256z"/>
			<path fill="#C1272D" d="M639.445,510.986c-0.523,2.63-1.295,5.176-2.318,7.646l-23.092-9.575c0.391-0.95,0.68-1.907,0.885-2.923
				L639.445,510.986z"/>
			<path fill="#E6E6E6" d="M637.127,518.633c-1.021,2.469-2.297,4.859-3.811,7.128l-20.775-13.907
				c0.605-0.911,1.102-1.85,1.494-2.796L637.127,518.633z"/>
			<path fill="#C1272D" d="M633.316,525.761c-1.514,2.268-3.268,4.41-5.213,6.363l-17.678-17.678
				c0.797-0.803,1.512-1.683,2.115-2.593L633.316,525.761z"/>
			<path fill="#E6E6E6" d="M628.104,532.124c-1.953,1.946-4.096,3.699-6.363,5.213l-13.908-20.774
				c0.91-0.604,1.791-1.319,2.594-2.116L628.104,532.124z"/>
			<path fill="#C1272D" d="M621.74,537.337c-2.268,1.515-4.658,2.789-7.129,3.812l-9.574-23.094
				c0.947-0.391,1.885-0.887,2.795-1.492L621.74,537.337z"/>
			<path fill="#E6E6E6" d="M614.611,541.148c-2.469,1.022-5.016,1.794-7.645,2.316l-4.852-24.524
				c1.016-0.204,1.973-0.494,2.922-0.886L614.611,541.148z"/>
			<path fill="#C1272D" d="M835.479,549.767c3.078-15.527,4.602-31.321,4.611-46.981h25c-0.01,17.261-1.689,34.692-5.086,51.832
				L835.479,549.767z"/>
			<path fill="#E6E6E6" d="M598.766,744.11c15.658-0.01,31.453-1.533,46.98-4.61l4.852,24.524
				c-17.141,3.396-34.572,5.077-51.834,5.086L598.766,744.11z"/>
			<path fill="#C1272D" d="M645.746,739.5c15.527-3.071,30.783-7.692,45.41-13.759l9.576,23.094
				c-16.148,6.697-32.994,11.799-50.135,15.189L645.746,739.5z"/>
			<path fill="#E6E6E6" d="M691.156,725.741c14.633-6.064,28.639-13.569,41.754-22.349l13.909,20.774
				c-14.473,9.688-29.932,17.973-46.086,24.668L691.156,725.741z"/>
			<path fill="#C1272D" d="M732.91,703.393c13.12-8.777,25.354-18.826,36.499-29.965l17.676,17.679
				c-12.293,12.287-25.789,23.374-40.266,33.061L732.91,703.393z"/>
			<path fill="#E6E6E6" d="M769.409,673.428c11.137-11.144,21.186-23.377,29.965-36.496l20.773,13.908
				c-9.686,14.477-20.773,27.972-33.061,40.266L769.409,673.428z"/>
			<path fill="#C1272D" d="M799.374,636.932c8.777-13.116,16.283-27.123,22.348-41.754l23.094,9.576
				c-6.695,16.152-14.98,31.611-24.668,46.086L799.374,636.932z"/>
			<path fill="#E6E6E6" d="M821.721,595.178c6.066-14.629,10.688-29.883,13.758-45.411l24.525,4.851
				c-3.391,17.143-8.492,33.986-15.189,50.137L821.721,595.178z"/>
			<path fill="#E6E6E6" d="M683.451,622.281c13.471-9.513,25.297-21.338,34.809-34.809l-8.426-5.981
				c-8.84,12.524-19.84,23.523-32.363,32.364L683.451,622.281z"/>
		</g>
	</g>
</g>
<g>
	<g>
		
			<rect x="752.735" y="1131.051" transform="matrix(0.7071 -0.7071 0.7071 0.7071 -631.0442 988.4571)" fill="#4D4D4D" width="249.832" height="249.831"/>
		
			<rect x="856.15" y="1250.8" transform="matrix(-0.7071 0.7071 -0.7071 -0.7071 2386.344 1523.4766)" fill="#E6E6E6" width="43" height="10.333"/>
		<g>
			
				<rect x="865.209" y="1084.543" transform="matrix(0.7071 -0.7071 0.7071 0.7071 -518.6514 941.9508)" fill="#E6E6E6" width="25" height="25"/>
			<g>
				<polygon fill="#C1272D" points="877.592,1079.247 877.591,1079.248 877.593,1079.248 				"/>
				<polygon fill="#C1272D" points="877.591,1079.248 859.913,1096.926 877.591,1114.604 877.591,1114.603 				"/>
			</g>
		</g>
		<g>
			
				<rect x="1024.014" y="1243.467" transform="matrix(0.7071 0.7071 -0.7071 0.7071 1191.6902 -365.0618)" fill="#E6E6E6" width="25" height="24.999"/>
			<g>
				<polygon fill="#C1272D" points="1054.31,1255.849 1054.31,1255.849 1054.309,1255.849 				"/>
				<polygon fill="#C1272D" points="1054.31,1255.849 1036.632,1238.171 1018.954,1255.849 1018.954,1255.849 				"/>
			</g>
		</g>
		<g>
			
				<rect x="706.286" y="1243.466" transform="matrix(-0.7071 -0.7071 0.7071 -0.7071 338.9427 2652.3262)" fill="#E6E6E6" width="25" height="25"/>
			<g>
				<polygon fill="#C1272D" points="700.99,1256.084 700.991,1256.084 700.991,1256.083 				"/>
				<polygon fill="#C1272D" points="700.991,1256.084 718.668,1273.762 736.346,1256.084 736.346,1256.084 				"/>
			</g>
		</g>
		<g>
			
				<rect x="865.091" y="1402.271" transform="matrix(-0.7071 0.7071 -0.7071 -0.7071 2498.5352 1794.6139)" fill="#E6E6E6" width="25" height="25"/>
			<g>
				<polygon fill="#C1272D" points="877.709,1432.566 877.709,1432.566 877.708,1432.565 				"/>
				<polygon fill="#C1272D" points="877.709,1432.566 895.387,1414.889 877.709,1397.211 877.709,1397.211 				"/>
			</g>
		</g>
		
			<rect x="856.149" y="1250.802" transform="matrix(-0.7071 -0.7071 0.7071 -0.7071 610.1491 2764.6675)" fill="#E6E6E6" width="43" height="10.333"/>
	</g>
	<g>
		
			<rect x="961.307" y="1339.3" transform="matrix(0.7071 0.7071 -0.7071 0.7071 1328.5854 -328.8962)" fill="#4D4D4D" width="200" height="200"/>
		
			<rect x="1066.368" y="1285.497" transform="matrix(0.7071 0.7071 -0.7071 0.7071 1233.8156 -382.7001)" fill="#C1272D" width="25" height="25"/>
		
			<rect x="1190.111" y="1409.241" transform="matrix(0.7071 0.7071 -0.7071 0.7071 1357.5592 -433.9564)" fill="#E6E6E6" width="25" height="24.999"/>
		
			<rect x="1172.434" y="1391.563" transform="matrix(0.7071 0.7071 -0.7071 0.7071 1339.8308 -426.6383)" fill="#C1272D" width="24.999" height="25"/>
		
			<rect x="1154.755" y="1373.885" transform="matrix(0.7071 0.7071 -0.7071 0.7071 1322.2285 -419.3093)" fill="#E6E6E6" width="25.001" height="25"/>
		
			<rect x="1137.078" y="1356.207" transform="matrix(0.7071 0.7071 -0.7071 0.7071 1304.5255 -411.9891)" fill="#C1272D" width="25" height="25"/>
		
			<rect x="1119.4" y="1338.531" transform="matrix(0.7071 0.7071 -0.7071 0.7071 1286.8484 -404.6665)" fill="#E6E6E6" width="25" height="24.999"/>
		
			<rect x="1101.723" y="1320.853" transform="matrix(0.7071 0.7071 -0.7071 0.7071 1269.1708 -397.3441)" fill="#C1272D" width="24.999" height="24.999"/>
		
			<rect x="1084.045" y="1303.175" transform="matrix(0.7071 0.7071 -0.7071 0.7071 1251.4933 -390.0225)" fill="#E6E6E6" width="25" height="25"/>
		
			<rect x="1031.129" y="1568.222" transform="matrix(-0.7071 -0.7071 0.7071 -0.7071 663.8474 3436.4189)" fill="#C1272D" width="25.001" height="25"/>
		
			<rect x="907.386" y="1444.478" transform="matrix(-0.7071 -0.7071 0.7071 -0.7071 540.1498 3137.6846)" fill="#E6E6E6" width="24.999" height="25"/>
		
			<rect x="925.063" y="1462.156" transform="matrix(-0.7071 -0.7071 0.7071 -0.7071 557.7582 3180.3472)" fill="#C1272D" width="25.001" height="25"/>
		
			<rect x="942.741" y="1479.834" transform="matrix(-0.7071 -0.7071 0.7071 -0.7071 575.4592 3223.031)" fill="#E6E6E6" width="25" height="25"/>
		
			<rect x="960.419" y="1497.512" transform="matrix(-0.7071 -0.7071 0.7071 -0.7071 593.137 3265.7087)" fill="#C1272D" width="25" height="25"/>
		
			<rect x="978.097" y="1515.189" transform="matrix(-0.7071 -0.7071 0.7071 -0.7071 610.8148 3308.3867)" fill="#E6E6E6" width="25" height="25"/>
		
			<rect x="995.774" y="1532.868" transform="matrix(-0.7071 -0.7071 0.7071 -0.7071 628.3926 3351.0435)" fill="#C1272D" width="25" height="24.999"/>
		
			<rect x="1013.452" y="1550.545" transform="matrix(-0.7071 -0.7071 0.7071 -0.7071 646.2697 3393.7627)" fill="#E6E6E6" width="24.999" height="25"/>
		
			<rect x="1039.807" y="1434.133" transform="matrix(-0.7071 -0.7071 0.7071 -0.7071 793.9977 3207.4917)" fill="#E6E6E6" width="43" height="10.333"/>
	</g>
	<g>
		<path fill="#4D4D4D" d="M157.293,1446.261c-44.803-44.259-71.076-107.704-70.682-170.644
			c-0.393-62.939,25.879-126.383,70.682-170.641l141.421,141.421c-16.034,15.048-16.033,43.395,0,58.441L157.293,1446.261z"/>
		<path fill="#C1272D" d="M293.372,1252.652c1.492-2.229,3.218-4.345,5.226-6.372l17.677,17.679
			c-0.875,0.894-1.554,1.742-2.13,2.604L293.372,1252.652z"/>
		<path fill="#E6E6E6" d="M298.598,1304.956c-2.008-2.027-3.734-4.143-5.226-6.372l20.772-13.911
			c0.576,0.862,1.255,1.711,2.131,2.605L298.598,1304.956z"/>
		<path fill="#C1272D" d="M293.372,1298.584c-1.489-2.229-2.744-4.575-3.769-7.046l23.101-9.558c0.395,0.947,0.867,1.829,1.44,2.692
			L293.372,1298.584z"/>
		<path fill="#E6E6E6" d="M289.603,1291.538c-1.022-2.468-1.812-5.06-2.344-7.734l24.524-4.855c0.215,1.072,0.528,2.086,0.92,3.032
			L289.603,1291.538z"/>
		<path fill="#C1272D" d="M287.259,1283.804c-0.533-2.674-0.809-5.429-0.813-8.186l25,0.001c0.005,1.13,0.122,2.259,0.338,3.329
			L287.259,1283.804z"/>
		<path fill="#E6E6E6" d="M286.445,1275.618c0.005-2.756,0.28-5.511,0.813-8.185l24.523,4.854c-0.215,1.071-0.332,2.199-0.337,3.331
			L286.445,1275.618z"/>
		<path fill="#C1272D" d="M287.258,1267.434c0.534-2.675,1.322-5.267,2.346-7.735l23.099,9.558
			c-0.392,0.947-0.704,1.961-0.922,3.032L287.258,1267.434z"/>
		<path fill="#E6E6E6" d="M289.604,1259.698c1.023-2.471,2.277-4.816,3.767-7.046l20.772,13.911
			c-0.574,0.862-1.045,1.745-1.44,2.692L289.604,1259.698z"/>
		<path fill="#C1272D" d="M127.333,1409.78c8.803,13.155,18.895,25.401,29.959,36.48l-17.676,17.679
			c-12.2-12.212-23.338-25.726-33.057-40.248L127.333,1409.78z"/>
		<path fill="#E6E6E6" d="M157.293,1104.977c-11.066,11.079-21.157,23.324-29.961,36.479l-20.771-13.91
			c9.718-14.522,20.856-28.035,33.055-40.248L157.293,1104.977z"/>
		<path fill="#C1272D" d="M127.333,1141.456c-8.808,13.152-16.327,27.207-22.381,41.84l-23.101-9.559
			c6.684-16.155,14.987-31.673,24.711-46.191L127.333,1141.456z"/>
		<path fill="#E6E6E6" d="M104.952,1183.296c-6.058,14.635-10.654,29.846-13.722,45.327l-24.524-4.855
			c3.385-17.084,8.457-33.874,15.145-50.03L104.952,1183.296z"/>
		<path fill="#C1272D" d="M91.229,1228.623c-3.069,15.484-4.613,31.24-4.619,46.995l-25-0.001
			c0.004-17.381,1.707-34.764,5.095-51.85L91.229,1228.623z"/>
		<path fill="#E6E6E6" d="M86.61,1275.618c0.005,15.756,1.549,31.511,4.619,46.995l-24.523,4.856
			c-3.387-17.086-5.09-34.47-5.094-51.851L86.61,1275.618z"/>
		<path fill="#C1272D" d="M91.229,1322.613c3.068,15.482,7.664,30.693,13.724,45.328l-23.102,9.559
			c-6.688-16.157-11.762-32.946-15.146-50.03L91.229,1322.613z"/>
		<path fill="#E6E6E6" d="M104.953,1367.941c6.052,14.633,13.573,28.688,22.381,41.839l-20.773,13.911
			c-9.723-14.518-18.026-30.037-24.709-46.191L104.953,1367.941z"/>
		<path fill="#E6E6E6" d="M183.558,1251.006c-2.8,16.251-2.8,32.974,0,49.227l10.187-1.729c-2.604-15.106-2.604-30.663,0.001-45.769
			L183.558,1251.006z"/>
	</g>
	<g>
		
			<rect x="220.358" y="983.333" transform="matrix(-0.7071 0.7071 -0.7071 -0.7071 1312.9181 1622.8375)" fill="#4D4D4D" width="200" height="200"/>
		
			<rect x="449.162" y="1088.394" transform="matrix(-0.7071 0.7071 -0.7071 -0.7071 1566.5558 1552.8984)" fill="#C1272D" width="25" height="25"/>
		
			<rect x="325.418" y="1212.137" transform="matrix(-0.7071 0.7071 -0.7071 -0.7071 1442.8118 1851.6412)" fill="#E6E6E6" width="25" height="25"/>
		
			<rect x="343.096" y="1194.459" transform="matrix(-0.7071 0.7071 -0.7071 -0.7071 1460.4895 1808.9634)" fill="#C1272D" width="25" height="25"/>
		
			<rect x="360.774" y="1176.781" transform="matrix(-0.7071 0.7071 -0.7071 -0.7071 1478.1672 1766.2856)" fill="#E6E6E6" width="25" height="25"/>
		
			<rect x="378.452" y="1159.104" transform="matrix(-0.7071 0.7071 -0.7071 -0.7071 1495.845 1723.6077)" fill="#C1272D" width="25" height="25"/>
		
			<rect x="396.129" y="1141.426" transform="matrix(-0.7071 0.7071 -0.7071 -0.7071 1513.5227 1680.9299)" fill="#E6E6E6" width="25" height="25"/>
		
			<rect x="413.807" y="1123.748" transform="matrix(-0.7071 0.7071 -0.7071 -0.7071 1531.2001 1638.2522)" fill="#C1272D" width="25" height="25"/>
		
			<rect x="431.485" y="1106.071" transform="matrix(-0.7071 0.7071 -0.7071 -0.7071 1548.8712 1595.5897)" fill="#E6E6E6" width="24.999" height="24.999"/>
		
			<rect x="166.437" y="1053.155" transform="matrix(0.7071 -0.7071 0.7071 0.7071 -701.1226 438.6508)" fill="#C1272D" width="25" height="25"/>
		
			<rect x="290.181" y="929.412" transform="matrix(0.7071 -0.7071 0.7071 0.7071 -577.3727 489.8949)" fill="#E6E6E6" width="25" height="25"/>
		
			<rect x="272.503" y="947.089" transform="matrix(0.7071 -0.7071 0.7071 0.7071 -595.0564 482.5846)" fill="#C1272D" width="25" height="25"/>
		
			<rect x="254.825" y="964.767" transform="matrix(0.7071 -0.7071 0.7071 0.7071 -612.7341 475.2623)" fill="#E6E6E6" width="25" height="25"/>
		
			<rect x="237.147" y="982.444" transform="matrix(0.7071 -0.7071 0.7071 0.7071 -630.4118 467.9399)" fill="#C1272D" width="25" height="25"/>
		
			<rect x="219.47" y="1000.122" transform="matrix(0.7071 -0.7071 0.7071 0.7071 -648.0895 460.6177)" fill="#E6E6E6" width="25" height="25"/>
		
			<rect x="201.792" y="1017.8" transform="matrix(0.7071 -0.7071 0.7071 0.7071 -665.7752 453.3074)" fill="#C1272D" width="25" height="25"/>
		
			<rect x="184.115" y="1035.478" transform="matrix(0.7071 -0.7071 0.7071 0.7071 -683.4448 445.9731)" fill="#E6E6E6" width="25" height="25"/>
		
			<rect x="298.859" y="1078.167" transform="matrix(0.7071 -0.7071 0.7071 0.7071 -672.1971 543.821)" fill="#E6E6E6" width="43" height="10.333"/>
	</g>
	<g>
		<path fill="#4D4D4D" d="M342.002,920.268c44.258-44.803,107.703-71.075,170.643-70.681c62.939-0.393,126.383,25.88,170.641,70.682
			l-141.421,141.421c-15.047-16.032-43.394-16.033-58.441,0L342.002,920.268z"/>
		<path fill="#C1272D" d="M535.609,1056.347c2.229,1.491,4.345,3.217,6.373,5.226l-17.678,17.678
			c-0.895-0.876-1.744-1.555-2.606-2.131L535.609,1056.347z"/>
		<path fill="#E6E6E6" d="M483.306,1061.572c2.027-2.009,4.143-3.734,6.372-5.226l13.912,20.772
			c-0.863,0.575-1.71,1.255-2.605,2.131L483.306,1061.572z"/>
		<path fill="#C1272D" d="M489.677,1056.347c2.229-1.489,4.575-2.744,7.046-3.768l9.558,23.1c-0.948,0.396-1.83,0.867-2.692,1.44
			L489.677,1056.347z"/>
		<path fill="#E6E6E6" d="M496.723,1052.579c2.468-1.023,5.061-1.812,7.735-2.346l4.856,24.524
			c-1.072,0.216-2.086,0.529-3.033,0.921L496.723,1052.579z"/>
		<path fill="#C1272D" d="M504.458,1050.233c2.674-0.533,5.429-0.808,8.186-0.813v25c-1.131,0.004-2.259,0.121-3.329,0.338
			L504.458,1050.233z"/>
		<path fill="#E6E6E6" d="M512.644,1049.42c2.757,0.005,5.512,0.28,8.186,0.813l-4.855,24.524c-1.071-0.216-2.199-0.334-3.331-0.338
			V1049.42z"/>
		<path fill="#C1272D" d="M520.829,1050.233c2.675,0.532,5.266,1.321,7.736,2.346l-9.56,23.1c-0.946-0.394-1.959-0.705-3.031-0.921
			L520.829,1050.233z"/>
		<path fill="#E6E6E6" d="M528.565,1052.579c2.468,1.022,4.815,2.278,7.043,3.768l-13.911,20.772
			c-0.862-0.574-1.744-1.046-2.692-1.44L528.565,1052.579z"/>
		<path fill="#C1272D" d="M378.482,890.309c-13.156,8.803-25.401,18.894-36.481,29.96l-17.678-17.677
			c12.212-12.199,25.726-23.337,40.247-33.055L378.482,890.309z"/>
		<path fill="#E6E6E6" d="M683.286,920.268c-11.079-11.065-23.325-21.157-36.48-29.96l13.911-20.771
			c14.522,9.718,28.036,20.856,40.249,33.056L683.286,920.268z"/>
		<path fill="#C1272D" d="M646.806,890.308c-13.151-8.808-27.207-16.328-41.839-22.381l9.558-23.101
			c16.154,6.683,31.673,14.987,46.191,24.71L646.806,890.308z"/>
		<path fill="#E6E6E6" d="M604.967,867.927c-14.635-6.059-29.846-10.655-45.328-13.721l4.855-24.524
			c17.084,3.383,33.874,8.456,50.03,15.145L604.967,867.927z"/>
		<path fill="#C1272D" d="M559.639,854.206c-15.483-3.07-31.24-4.616-46.996-4.62l0.002-24.999
			c17.381,0.004,34.764,1.708,51.85,5.095L559.639,854.206z"/>
		<path fill="#E6E6E6" d="M512.643,849.585c-15.755,0.005-31.511,1.55-46.995,4.619l-4.854-24.524
			c17.085-3.388,34.468-5.09,51.85-5.095V849.585z"/>
		<path fill="#C1272D" d="M465.648,854.204c-15.481,3.068-30.693,7.665-45.327,13.722l-9.558-23.101
			c16.155-6.687,32.945-11.76,50.03-15.145L465.648,854.204z"/>
		<path fill="#E6E6E6" d="M420.321,867.926c-14.634,6.055-28.688,13.573-41.839,22.382l-13.912-20.772
			c14.519-9.724,30.037-18.027,46.193-24.711L420.321,867.926z"/>
		<path fill="#E6E6E6" d="M537.258,946.533c-16.252-2.799-32.976-2.8-49.227,0l1.729,10.187c15.107-2.605,30.663-2.604,45.77,0
			L537.258,946.533z"/>
	</g>
	<g>
		
			<rect x="598.423" y="976.563" transform="matrix(-0.7071 -0.7071 0.7071 -0.7071 431.0395 2331.668)" fill="#4D4D4D" width="200" height="200"/>
		
			<rect x="668.361" y="1205.365" transform="matrix(-0.7071 -0.7071 0.7071 -0.7071 301.1422 2560.4678)" fill="#C1272D" width="25" height="25"/>
		
			<rect x="544.618" y="1081.622" transform="matrix(-0.7071 -0.7071 0.7071 -0.7071 177.3982 2261.7249)" fill="#E6E6E6" width="25" height="25"/>
		
			<rect x="562.296" y="1099.3" transform="matrix(-0.7071 -0.7071 0.7071 -0.7071 195.0594 2304.3975)" fill="#C1272D" width="25" height="25"/>
		
			<rect x="579.972" y="1116.978" transform="matrix(-0.7071 -0.7071 0.7071 -0.7071 212.7706 2347.0869)" fill="#E6E6E6" width="25.002" height="25"/>
		
			<rect x="597.652" y="1134.656" transform="matrix(-0.7071 -0.7071 0.7071 -0.7071 230.4324 2389.7607)" fill="#C1272D" width="25" height="25"/>
		
			<rect x="615.329" y="1152.333" transform="matrix(-0.7071 -0.7071 0.7071 -0.7071 248.1096 2432.4365)" fill="#E6E6E6" width="25" height="25"/>
		
			<rect x="633.008" y="1170.011" transform="matrix(-0.7071 -0.7071 0.7071 -0.7071 265.8052 2475.1194)" fill="#C1272D" width="24.998" height="25"/>
		
			<rect x="650.684" y="1187.688" transform="matrix(-0.7071 -0.7071 0.7071 -0.7071 283.4645 2517.7898)" fill="#E6E6E6" width="25" height="25"/>
		
			<rect x="703.599" y="922.641" transform="matrix(0.7071 0.7071 -0.7071 0.7071 870.9852 -232.4626)" fill="#C1272D" width="25.002" height="25"/>
		
			<rect x="827.344" y="1046.385" transform="matrix(0.7071 0.7071 -0.7071 0.7071 994.7292 -283.7194)" fill="#E6E6E6" width="25" height="25"/>
		
			<rect x="809.665" y="1028.707" transform="matrix(0.7071 0.7071 -0.7071 0.7071 977.0328 -276.3988)" fill="#C1272D" width="25.002" height="25"/>
		
			<rect x="791.987" y="1011.028" transform="matrix(0.7071 0.7071 -0.7071 0.7071 959.3905 -269.0718)" fill="#E6E6E6" width="25" height="25"/>
		
			<rect x="774.31" y="993.351" transform="matrix(0.7071 0.7071 -0.7071 0.7071 941.6951 -261.752)" fill="#C1272D" width="25" height="25"/>
		
			<rect x="756.632" y="975.673" transform="matrix(0.7071 0.7071 -0.7071 0.7071 924.0174 -254.4294)" fill="#E6E6E6" width="25" height="25"/>
		
			<rect x="738.955" y="957.995" transform="matrix(0.7071 0.7071 -0.7071 0.7071 906.3564 -247.1051)" fill="#C1272D" width="25" height="25"/>
		
			<rect x="721.279" y="940.318" transform="matrix(0.7071 0.7071 -0.7071 0.7071 888.6299 -239.7896)" fill="#E6E6E6" width="24.998" height="25"/>
		
			<rect x="676.923" y="1071.396" transform="matrix(0.7071 0.7071 -0.7071 0.7071 965.7982 -178.5435)" fill="#E6E6E6" width="43" height="10.333"/>
	</g>
	<g>
		<path fill="#4D4D4D" d="M1605.151,1076.359c44.803,44.26,71.075,107.704,70.682,170.645
			c0.392,62.939-25.88,126.383-70.683,170.642l-141.422-141.422c16.031-15.048,16.032-43.395,0-58.441L1605.151,1076.359z"/>
		<path fill="#C1272D" d="M1469.07,1269.968c-1.49,2.23-3.217,4.346-5.225,6.373l-17.678-17.678
			c0.876-0.895,1.554-1.744,2.131-2.605L1469.07,1269.968z"/>
		<path fill="#E6E6E6" d="M1463.845,1217.665c2.008,2.027,3.733,4.142,5.225,6.371l-20.772,13.911
			c-0.575-0.861-1.254-1.71-2.13-2.604L1463.845,1217.665z"/>
		<path fill="#C1272D" d="M1469.07,1224.036c1.49,2.23,2.744,4.575,3.769,7.045l-23.1,9.56c-0.396-0.949-0.868-1.83-1.441-2.693
			L1469.07,1224.036z"/>
		<path fill="#E6E6E6" d="M1472.838,1231.081c1.022,2.469,1.812,5.06,2.346,7.736l-24.525,4.856
			c-0.216-1.072-0.529-2.087-0.92-3.033L1472.838,1231.081z"/>
		<path fill="#C1272D" d="M1475.184,1238.817c0.533,2.674,0.809,5.428,0.813,8.186h-25c-0.005-1.131-0.122-2.259-0.339-3.329
			L1475.184,1238.817z"/>
		<path fill="#E6E6E6" d="M1475.998,1247.003c-0.006,2.757-0.28,5.512-0.813,8.186l-24.525-4.855c0.217-1.07,0.334-2.199,0.339-3.33
			H1475.998z"/>
		<path fill="#C1272D" d="M1475.184,1255.188c-0.533,2.674-1.322,5.267-2.347,7.735l-23.1-9.56c0.394-0.946,0.705-1.96,0.921-3.031
			L1475.184,1255.188z"/>
		<path fill="#E6E6E6" d="M1472.837,1262.924c-1.022,2.47-2.277,4.816-3.768,7.044l-20.771-13.91
			c0.573-0.863,1.046-1.744,1.439-2.693L1472.837,1262.924z"/>
		<path fill="#C1272D" d="M1635.11,1112.841c-8.804-13.155-18.896-25.4-29.961-36.482l17.677-17.677
			c12.2,12.212,23.339,25.726,33.056,40.246L1635.11,1112.841z"/>
		<path fill="#E6E6E6" d="M1605.15,1417.646c11.065-11.078,21.156-23.324,29.959-36.48l20.773,13.911
			c-9.719,14.522-20.857,28.036-33.057,40.249L1605.15,1417.646z"/>
		<path fill="#C1272D" d="M1635.109,1381.165c8.811-13.152,16.329-27.206,22.384-41.84l23.101,9.559
			c-6.685,16.156-14.987,31.674-24.711,46.192L1635.109,1381.165z"/>
		<path fill="#E6E6E6" d="M1657.493,1339.325c6.057-14.634,10.653-29.845,13.721-45.328l24.524,4.856
			c-3.385,17.085-8.457,33.875-15.145,50.03L1657.493,1339.325z"/>
		<path fill="#C1272D" d="M1671.213,1293.997c3.07-15.482,4.614-31.238,4.618-46.994l25.002,0.001
			c-0.005,17.381-1.709,34.763-5.096,51.85L1671.213,1293.997z"/>
		<path fill="#E6E6E6" d="M1675.832,1247.003c-0.003-15.756-1.548-31.513-4.619-46.996l24.525-4.855
			c3.387,17.087,5.09,34.471,5.094,51.852H1675.832z"/>
		<path fill="#C1272D" d="M1671.212,1200.007c-3.065-15.481-7.663-30.694-13.723-45.327l23.102-9.558
			c6.688,16.155,11.762,32.943,15.146,50.029L1671.212,1200.007z"/>
		<path fill="#E6E6E6" d="M1657.49,1154.68c-6.053-14.635-13.572-28.688-22.38-41.839l20.771-13.913
			c9.724,14.52,18.025,30.038,24.71,46.194L1657.49,1154.68z"/>
		<path fill="#E6E6E6" d="M1578.885,1271.615c2.8-16.251,2.798-32.975,0-49.227l-10.187,1.729
			c2.604,15.107,2.604,30.664-0.002,45.771L1578.885,1271.615z"/>
	</g>
	<g>
		
			<rect x="1334.465" y="1335.247" transform="matrix(0.7071 -0.7071 0.7071 0.7071 -594.7283 1434.6938)" fill="#4D4D4D" width="199.999" height="200.001"/>
		
			<rect x="1280.662" y="1405.186" transform="matrix(0.7071 -0.7071 0.7071 0.7071 -623.6968 1329.6338)" fill="#C1272D" width="25" height="25"/>
		
			<rect x="1404.406" y="1281.441" transform="matrix(0.7071 -0.7071 0.7071 0.7071 -499.9526 1380.8904)" fill="#E6E6E6" width="25" height="25"/>
		
			<rect x="1386.728" y="1299.119" transform="matrix(0.7071 -0.7071 0.7071 0.7071 -517.6304 1373.568)" fill="#C1272D" width="25" height="25"/>
		
			<rect x="1369.048" y="1316.797" transform="matrix(0.7071 -0.7071 0.7071 0.7071 -535.3098 1366.1921)" fill="#E6E6E6" width="25.002" height="25"/>
		
			<rect x="1351.371" y="1334.476" transform="matrix(0.7071 -0.7071 0.7071 0.7071 -552.9869 1358.9225)" fill="#C1272D" width="25" height="24.999"/>
		
			<rect x="1333.694" y="1352.153" transform="matrix(0.7071 -0.7071 0.7071 0.7071 -570.6646 1351.6533)" fill="#E6E6E6" width="24.999" height="25"/>
		
			<rect x="1316.017" y="1369.831" transform="matrix(0.7071 -0.7071 0.7071 0.7071 -588.3418 1344.2783)" fill="#C1272D" width="24.999" height="25"/>
		
			<rect x="1298.339" y="1387.508" transform="matrix(0.7071 -0.7071 0.7071 0.7071 -606.019 1336.9562)" fill="#E6E6E6" width="25" height="25"/>
		
			<rect x="1563.386" y="1440.424" transform="matrix(-0.7071 0.7071 -0.7071 -0.7071 3717.5828 1366.0356)" fill="#C1272D" width="25.002" height="25"/>
		
			<rect x="1439.643" y="1564.169" transform="matrix(-0.7071 0.7071 -0.7071 -0.7071 3593.8364 1664.722)" fill="#E6E6E6" width="25" height="25"/>
		
			<rect x="1457.321" y="1546.491" transform="matrix(-0.7071 0.7071 -0.7071 -0.7071 3611.5146 1622.0431)" fill="#C1272D" width="25.001" height="25"/>
		
			<rect x="1475" y="1528.812" transform="matrix(-0.7071 0.7071 -0.7071 -0.7071 3629.1929 1579.3641)" fill="#E6E6E6" width="25" height="25"/>
		
			<rect x="1492.677" y="1511.135" transform="matrix(-0.7071 0.7071 -0.7071 -0.7071 3646.8706 1536.6862)" fill="#C1272D" width="25" height="25"/>
		
			<rect x="1510.355" y="1493.457" transform="matrix(-0.7071 0.7071 -0.7071 -0.7071 3664.5483 1494.0084)" fill="#E6E6E6" width="25" height="25"/>
		
			<rect x="1528.033" y="1475.779" transform="matrix(-0.7071 0.7071 -0.7071 -0.7071 3682.2261 1451.3304)" fill="#C1272D" width="25" height="25"/>
		
			<rect x="1545.71" y="1458.102" transform="matrix(-0.7071 0.7071 -0.7071 -0.7071 3699.9009 1408.595)" fill="#E6E6E6" width="24.998" height="25"/>
		
			<rect x="1412.964" y="1430.079" transform="matrix(-0.7071 0.7071 -0.7071 -0.7071 3463.6565 1435.7673)" fill="#E6E6E6" width="43" height="10.335"/>
	</g>
	<g>
		<path fill="#4D4D4D" d="M1418.533,1604.263c-44.258,44.803-107.703,71.074-170.643,70.681
			c-62.939,0.393-126.383-25.88-170.641-70.682l141.421-141.422c15.047,16.032,43.394,16.033,58.441,0L1418.533,1604.263z"/>
		<path fill="#C1272D" d="M1224.926,1468.183c-2.229-1.491-4.345-3.217-6.373-5.226l17.678-17.678
			c0.895,0.876,1.743,1.555,2.606,2.131L1224.926,1468.183z"/>
		<path fill="#E6E6E6" d="M1277.229,1462.957c-2.027,2.009-4.143,3.734-6.372,5.226l-13.912-20.772
			c0.863-0.575,1.711-1.255,2.605-2.131L1277.229,1462.957z"/>
		<path fill="#C1272D" d="M1270.857,1468.183c-2.229,1.489-4.575,2.744-7.046,3.768l-9.558-23.099
			c0.948-0.396,1.83-0.868,2.692-1.441L1270.857,1468.183z"/>
		<path fill="#E6E6E6" d="M1263.812,1471.95c-2.468,1.023-5.061,1.812-7.735,2.346l-4.856-24.524
			c1.072-0.216,2.087-0.529,3.033-0.92L1263.812,1471.95z"/>
		<path fill="#C1272D" d="M1256.077,1474.296c-2.674,0.533-5.429,0.808-8.186,0.813v-25c1.131-0.004,2.259-0.121,3.329-0.338
			L1256.077,1474.296z"/>
		<path fill="#E6E6E6" d="M1247.891,1475.109c-2.757-0.005-5.512-0.28-8.186-0.813l4.855-24.524
			c1.071,0.216,2.199,0.334,3.331,0.338V1475.109z"/>
		<path fill="#C1272D" d="M1239.706,1474.296c-2.674-0.532-5.266-1.321-7.736-2.346l9.56-23.1c0.946,0.394,1.959,0.705,3.031,0.921
			L1239.706,1474.296z"/>
		<path fill="#E6E6E6" d="M1231.969,1471.95c-2.468-1.022-4.815-2.278-7.043-3.768l13.911-20.772
			c0.862,0.574,1.744,1.046,2.692,1.44L1231.969,1471.95z"/>
		<path fill="#C1272D" d="M1382.053,1634.222c13.155-8.803,25.401-18.894,36.481-29.96l17.678,17.677
			c-12.213,12.199-25.727,23.337-40.247,33.055L1382.053,1634.222z"/>
		<path fill="#E6E6E6" d="M1077.249,1604.262c11.079,11.064,23.325,21.156,36.48,29.96l-13.911,20.771
			c-14.522-9.719-28.036-20.855-40.249-33.056L1077.249,1604.262z"/>
		<path fill="#C1272D" d="M1113.729,1634.222c13.151,8.808,27.206,16.327,41.838,22.381l-9.558,23.101
			c-16.154-6.683-31.673-14.987-46.191-24.71L1113.729,1634.222z"/>
		<path fill="#E6E6E6" d="M1155.568,1656.603c14.635,6.059,29.846,10.655,45.328,13.722l-4.854,24.524
			c-17.085-3.383-33.874-8.457-50.031-15.146L1155.568,1656.603z"/>
		<path fill="#C1272D" d="M1200.896,1670.324c15.484,3.07,31.24,4.616,46.997,4.62l-0.002,24.999
			c-17.38-0.004-34.763-1.707-51.849-5.095L1200.896,1670.324z"/>
		<path fill="#E6E6E6" d="M1247.893,1674.944c15.754-0.005,31.51-1.55,46.995-4.618l4.854,24.523
			c-17.085,3.388-34.468,5.09-51.849,5.095V1674.944z"/>
		<path fill="#C1272D" d="M1294.887,1670.326c15.481-3.068,30.693-7.665,45.327-13.723l9.559,23.102
			c-16.156,6.687-32.946,11.76-50.031,15.145L1294.887,1670.326z"/>
		<path fill="#E6E6E6" d="M1340.214,1656.604c14.634-6.055,28.688-13.573,41.839-22.382l13.912,20.771
			c-14.52,9.725-30.037,18.027-46.192,24.712L1340.214,1656.604z"/>
		<path fill="#E6E6E6" d="M1223.277,1577.997c16.252,2.799,32.976,2.799,49.227,0l-1.729-10.188
			c-15.107,2.605-30.663,2.604-45.77,0.001L1223.277,1577.997z"/>
	</g>
	<g>
		
			<rect x="966.448" y="967.228" transform="matrix(-0.7071 0.7071 -0.7071 -0.7071 2575.1841 1067.7789)" fill="#4D4D4D" width="200" height="200"/>
		
			<rect x="1195.25" y="1072.289" transform="matrix(-0.7071 0.7071 -0.7071 -0.7071 2828.8208 997.8422)" fill="#C1272D" width="25" height="25"/>
		
			<rect x="1071.507" y="1196.033" transform="matrix(-0.7071 0.7071 -0.7071 -0.7071 2705.0771 1296.5868)" fill="#E6E6E6" width="25" height="25"/>
		
			<rect x="1089.184" y="1178.355" transform="matrix(-0.7071 0.7071 -0.7071 -0.7071 2722.7556 1253.8865)" fill="#C1272D" width="25" height="25"/>
		
			<rect x="1106.861" y="1160.677" transform="matrix(-0.7071 0.7071 -0.7071 -0.7071 2740.4331 1211.2068)" fill="#E6E6E6" width="25.003" height="25"/>
		
			<rect x="1124.541" y="1142.998" transform="matrix(-0.7071 0.7071 -0.7071 -0.7071 2758.1108 1168.5491)" fill="#C1272D" width="25" height="25"/>
		
			<rect x="1142.218" y="1125.321" transform="matrix(-0.7071 0.7071 -0.7071 -0.7071 2775.7883 1125.9183)" fill="#E6E6E6" width="24.999" height="25"/>
		
			<rect x="1159.897" y="1107.644" transform="matrix(-0.7071 0.7071 -0.7071 -0.7071 2793.4656 1083.1741)" fill="#C1272D" width="24.998" height="25"/>
		
			<rect x="1177.573" y="1089.967" transform="matrix(-0.7071 0.7071 -0.7071 -0.7071 2811.1431 1040.52)" fill="#E6E6E6" width="25" height="25"/>
		
			<rect x="912.525" y="1037.05" transform="matrix(0.7071 -0.7071 0.7071 0.7071 -471.2092 961.4788)" fill="#C1272D" width="25.002" height="25"/>
		
			<rect x="1036.27" y="913.306" transform="matrix(0.7071 -0.7071 0.7071 0.7071 -347.4662 1012.7548)" fill="#E6E6E6" width="25" height="25"/>
		
			<rect x="1018.591" y="930.985" transform="matrix(0.7071 -0.7071 0.7071 0.7071 -365.1445 1005.4323)" fill="#C1272D" width="25.002" height="25"/>
		
			<rect x="1000.913" y="948.663" transform="matrix(0.7071 -0.7071 0.7071 0.7071 -382.8225 998.1288)" fill="#E6E6E6" width="25" height="25"/>
		
			<rect x="983.236" y="966.341" transform="matrix(0.7071 -0.7071 0.7071 0.7071 -400.5007 990.7874)" fill="#C1272D" width="25" height="25"/>
		
			<rect x="965.558" y="984.018" transform="matrix(0.7071 -0.7071 0.7071 0.7071 -418.1785 983.465)" fill="#E6E6E6" width="25" height="25"/>
		
			<rect x="947.881" y="1001.697" transform="matrix(0.7071 -0.7071 0.7071 0.7071 -435.8551 976.1041)" fill="#C1272D" width="24.999" height="24.999"/>
		
			<rect x="930.204" y="1019.372" transform="matrix(0.7071 -0.7071 0.7071 0.7071 -453.5336 968.8397)" fill="#E6E6E6" width="24.998" height="25"/>
		
			<rect x="1044.948" y="1062.061" transform="matrix(0.7071 -0.7071 0.7071 0.7071 -442.2891 1066.6648)" fill="#E6E6E6" width="43" height="10.335"/>
	</g>
	<g>
		<path fill="#4D4D4D" d="M1084.049,896.543c44.258-44.803,107.703-71.075,170.643-70.681
			c62.939-0.393,126.383,25.88,170.641,70.682l-141.422,141.422c-15.047-16.032-43.394-16.034-58.441,0L1084.049,896.543z"/>
		<path fill="#C1272D" d="M1277.655,1032.623c2.229,1.49,4.345,3.217,6.373,5.225l-17.678,17.678
			c-0.895-0.875-1.744-1.554-2.606-2.131L1277.655,1032.623z"/>
		<path fill="#E6E6E6" d="M1225.352,1037.848c2.027-2.008,4.143-3.733,6.372-5.225l13.912,20.772
			c-0.863,0.575-1.71,1.255-2.605,2.13L1225.352,1037.848z"/>
		<path fill="#C1272D" d="M1231.724,1032.623c2.229-1.49,4.576-2.744,7.046-3.768l9.558,23.099c-0.948,0.396-1.83,0.868-2.692,1.441
			L1231.724,1032.623z"/>
		<path fill="#E6E6E6" d="M1238.77,1028.855c2.468-1.023,5.06-1.812,7.734-2.346l4.856,24.524c-1.072,0.216-2.086,0.528-3.033,0.92
			L1238.77,1028.855z"/>
		<path fill="#C1272D" d="M1246.504,1026.51c2.674-0.533,5.429-0.809,8.186-0.813v25c-1.131,0.004-2.259,0.121-3.329,0.338
			L1246.504,1026.51z"/>
		<path fill="#E6E6E6" d="M1254.69,1025.696c2.757,0.005,5.512,0.28,8.186,0.813l-4.855,24.524
			c-1.071-0.217-2.199-0.334-3.331-0.338V1025.696z"/>
		<path fill="#C1272D" d="M1262.875,1026.51c2.675,0.532,5.266,1.321,7.736,2.346l-9.56,23.1c-0.946-0.394-1.959-0.706-3.031-0.921
			L1262.875,1026.51z"/>
		<path fill="#E6E6E6" d="M1270.612,1028.855c2.469,1.022,4.815,2.277,7.043,3.768l-13.911,20.771
			c-0.862-0.573-1.744-1.045-2.692-1.439L1270.612,1028.855z"/>
		<path fill="#C1272D" d="M1120.529,866.584c-13.156,8.803-25.401,18.894-36.481,29.96l-17.678-17.678
			c12.212-12.198,25.726-23.337,40.247-33.055L1120.529,866.584z"/>
		<path fill="#E6E6E6" d="M1425.333,896.544c-11.079-11.065-23.325-21.156-36.48-29.96l13.91-20.772
			c14.522,9.718,28.037,20.856,40.249,33.056L1425.333,896.544z"/>
		<path fill="#C1272D" d="M1388.852,866.584c-13.151-8.808-27.206-16.328-41.839-22.381l9.559-23.101
			c16.154,6.683,31.673,14.987,46.19,24.71L1388.852,866.584z"/>
		<path fill="#E6E6E6" d="M1347.013,844.203c-14.636-6.059-29.846-10.656-45.328-13.722l4.855-24.524
			c17.084,3.383,33.874,8.457,50.031,15.145L1347.013,844.203z"/>
		<path fill="#C1272D" d="M1301.686,830.481c-15.483-3.07-31.24-4.616-46.996-4.62l0.002-25c17.381,0.004,34.764,1.708,51.85,5.095
			L1301.686,830.481z"/>
		<path fill="#E6E6E6" d="M1254.689,825.862c-15.754,0.005-31.511,1.549-46.995,4.618l-4.854-24.523
			c17.085-3.388,34.468-5.09,51.85-5.095V825.862z"/>
		<path fill="#C1272D" d="M1207.694,830.48c-15.481,3.068-30.693,7.665-45.327,13.722l-9.558-23.101
			c16.156-6.687,32.945-11.76,50.03-15.145L1207.694,830.48z"/>
		<path fill="#E6E6E6" d="M1162.368,844.202c-14.634,6.055-28.688,13.573-41.839,22.382l-13.912-20.772
			c14.519-9.724,30.037-18.027,46.193-24.711L1162.368,844.202z"/>
		<path fill="#E6E6E6" d="M1279.304,922.809c-16.252-2.799-32.976-2.799-49.227,0l1.729,10.188
			c15.107-2.605,30.663-2.605,45.77-0.001L1279.304,922.809z"/>
	</g>
	<g>
		
			<rect x="1343.988" y="956.621" transform="matrix(-0.7071 -0.7071 0.7071 -0.7071 1717.8945 2824.8186)" fill="#4D4D4D" width="200" height="199.999"/>
		
			<rect x="1413.926" y="1185.424" transform="matrix(-0.7071 -0.7071 0.7071 -0.7071 1588.002 3053.6196)" fill="#C1272D" width="25" height="25"/>
		
			<rect x="1290.182" y="1061.68" transform="matrix(-0.7071 -0.7071 0.7071 -0.7071 1464.2578 2754.8748)" fill="#E6E6E6" width="25" height="25"/>
		
			<rect x="1307.86" y="1079.357" transform="matrix(-0.7071 -0.7071 0.7071 -0.7071 1481.9355 2797.5525)" fill="#C1272D" width="25" height="25"/>
		
			<rect x="1325.537" y="1097.036" transform="matrix(-0.7071 -0.7071 0.7071 -0.7071 1499.6138 2840.2317)" fill="#E6E6E6" width="25.001" height="25"/>
		
			<rect x="1343.216" y="1114.714" transform="matrix(-0.7071 -0.7071 0.7071 -0.7071 1517.292 2882.9106)" fill="#C1272D" width="25" height="25"/>
		
			<rect x="1360.894" y="1132.391" transform="matrix(-0.7071 -0.7071 0.7071 -0.7071 1534.9692 2925.5872)" fill="#E6E6E6" width="25" height="25"/>
		
			<rect x="1378.572" y="1150.069" transform="matrix(-0.7071 -0.7071 0.7071 -0.7071 1552.647 2968.2651)" fill="#C1272D" width="24.999" height="25"/>
		
			<rect x="1396.249" y="1167.746" transform="matrix(-0.7071 -0.7071 0.7071 -0.7071 1570.3242 3010.9417)" fill="#E6E6E6" width="25" height="25"/>
		
			<rect x="1449.163" y="902.699" transform="matrix(0.7071 0.7071 -0.7071 0.7071 1075.2085 -765.4867)" fill="#C1272D" width="25.002" height="25"/>
		
			<rect x="1572.909" y="1026.443" transform="matrix(0.7071 0.7071 -0.7071 0.7071 1198.9993 -816.7537)" fill="#E6E6E6" width="25" height="25"/>
		
			<rect x="1555.229" y="1008.765" transform="matrix(0.7071 0.7071 -0.7071 0.7071 1181.3717 -809.4419)" fill="#C1272D" width="25.002" height="24.999"/>
		
			<rect x="1537.552" y="991.086" transform="matrix(0.7071 0.7071 -0.7071 0.7071 1163.5925 -802.098)" fill="#E6E6E6" width="24.999" height="25"/>
		
			<rect x="1519.875" y="973.409" transform="matrix(0.7071 0.7071 -0.7071 0.7071 1145.9652 -794.7863)" fill="#C1272D" width="25" height="25"/>
		
			<rect x="1502.197" y="955.731" transform="matrix(0.7071 0.7071 -0.7071 0.7071 1128.2874 -787.4639)" fill="#E6E6E6" width="25" height="25"/>
		
			<rect x="1484.519" y="938.055" transform="matrix(0.707 0.7072 -0.7072 0.707 1110.7771 -780.179)" fill="#C1272D" width="25" height="24.998"/>
		
			<rect x="1466.844" y="920.376" transform="matrix(0.7072 0.7071 -0.7071 0.7072 1092.8147 -772.7939)" fill="#E6E6E6" width="24.998" height="25"/>
		
			<rect x="1422.488" y="1051.455" transform="matrix(0.7071 0.7071 -0.7071 0.7071 1170.078 -711.576)" fill="#E6E6E6" width="43" height="10.332"/>
	</g>
	<g>
		
			<rect x="213.719" y="1361.264" transform="matrix(0.7071 0.7071 -0.7071 0.7071 1125.1581 206.1632)" fill="#4D4D4D" width="200" height="200"/>
		
			<rect x="318.78" y="1307.461" transform="matrix(0.7071 0.7071 -0.7071 0.7071 1030.3829 152.3574)" fill="#C1272D" width="25" height="25"/>
		
			<rect x="442.523" y="1431.205" transform="matrix(0.7071 0.7071 -0.7071 0.7071 1154.1266 101.1012)" fill="#E6E6E6" width="25" height="24.999"/>
		
			<rect x="424.846" y="1413.527" transform="matrix(0.7071 0.7071 -0.7071 0.7071 1136.4124 108.4042)" fill="#C1272D" width="24.999" height="25"/>
		
			<rect x="407.167" y="1395.849" transform="matrix(0.7071 0.7071 -0.7071 0.7071 1118.7888 115.7556)" fill="#E6E6E6" width="25.001" height="25"/>
		
			<rect x="389.49" y="1378.171" transform="matrix(0.7071 0.7071 -0.7071 0.7071 1101.0929 123.0685)" fill="#C1272D" width="25" height="25"/>
		
			<rect x="371.812" y="1360.494" transform="matrix(0.7071 0.7071 -0.7071 0.7071 1083.4155 130.3909)" fill="#E6E6E6" width="25" height="24.999"/>
		
			<rect x="354.135" y="1342.817" transform="matrix(0.7071 0.7071 -0.7071 0.7071 1065.738 137.7134)" fill="#C1272D" width="24.999" height="24.999"/>
		
			<rect x="336.457" y="1325.139" transform="matrix(0.7071 0.7071 -0.7071 0.7071 1048.0605 145.0352)" fill="#E6E6E6" width="25" height="25"/>
		
			<rect x="283.541" y="1590.186" transform="matrix(-0.7071 -0.7071 0.7071 -0.7071 -627.9142 2945.2764)" fill="#C1272D" width="25.001" height="25"/>
		
			<rect x="159.797" y="1466.441" transform="matrix(-0.7071 -0.7071 0.7071 -0.7071 -751.6395 2646.5435)" fill="#E6E6E6" width="25" height="25"/>
		
			<rect x="177.475" y="1484.12" transform="matrix(-0.7071 -0.7071 0.7071 -0.7071 -733.9782 2689.2095)" fill="#C1272D" width="25.001" height="25"/>
		
			<rect x="195.153" y="1501.798" transform="matrix(-0.7071 -0.7071 0.7071 -0.7071 -716.2839 2731.9011)" fill="#E6E6E6" width="25" height="25"/>
		
			<rect x="212.831" y="1519.476" transform="matrix(-0.7071 -0.7071 0.7071 -0.7071 -698.6061 2774.5791)" fill="#C1272D" width="25" height="25"/>
		
			<rect x="230.509" y="1537.153" transform="matrix(-0.7071 -0.7071 0.7071 -0.7071 -680.9285 2817.2568)" fill="#E6E6E6" width="25" height="25"/>
		
			<rect x="248.187" y="1554.831" transform="matrix(-0.7071 -0.7071 0.7071 -0.7071 -663.2864 2859.9092)" fill="#C1272D" width="24.999" height="24.999"/>
		
			<rect x="265.864" y="1572.508" transform="matrix(-0.7071 -0.7071 0.7071 -0.7071 -645.5378 2902.6365)" fill="#E6E6E6" width="24.999" height="25"/>
		
			<rect x="292.219" y="1456.097" transform="matrix(-0.7071 -0.7071 0.7071 -0.7071 -497.7373 2716.353)" fill="#E6E6E6" width="43" height="10.333"/>
	</g>
	<g>
		
			<rect x="585.233" y="1348.207" transform="matrix(0.7071 -0.7071 0.7071 0.7071 -823.3391 908.7084)" fill="#4D4D4D" width="200" height="200.002"/>
		
			<rect x="531.429" y="1418.147" transform="matrix(0.7071 -0.7071 0.7071 0.7071 -852.316 803.662)" fill="#C1272D" width="25" height="25"/>
		
			<rect x="655.173" y="1294.403" transform="matrix(0.7071 -0.7071 0.7071 0.7071 -728.5697 854.9182)" fill="#E6E6E6" width="25" height="25"/>
		
			<rect x="637.495" y="1312.081" transform="matrix(0.7071 -0.7071 0.7071 0.7071 -746.2411 847.5768)" fill="#C1272D" width="25" height="25"/>
		
			<rect x="619.817" y="1329.759" transform="matrix(0.7071 -0.7071 0.7071 0.7071 -763.9188 840.2544)" fill="#E6E6E6" width="25" height="25"/>
		
			<rect x="602.14" y="1347.437" transform="matrix(0.7071 -0.7071 0.7071 0.7071 -781.5964 832.9321)" fill="#C1272D" width="25" height="25"/>
		
			<rect x="584.462" y="1365.114" transform="matrix(0.7071 -0.7071 0.7071 0.7071 -799.2743 825.6097)" fill="#E6E6E6" width="25" height="25"/>
		
			<rect x="566.784" y="1382.792" transform="matrix(0.7071 -0.7071 0.7071 0.7071 -816.9519 818.2875)" fill="#C1272D" width="25" height="25"/>
		
			<rect x="549.107" y="1400.47" transform="matrix(0.7071 -0.7071 0.7071 0.7071 -834.6296 810.9651)" fill="#E6E6E6" width="25" height="25"/>
		
			<rect x="814.155" y="1453.386" transform="matrix(-0.7071 0.7071 -0.7071 -0.7071 2447.7324 1917.8677)" fill="#C1272D" width="25" height="25"/>
		
			<rect x="690.411" y="1577.13" transform="matrix(-0.7071 0.7071 -0.7071 -0.7071 2323.9915 2216.6121)" fill="#E6E6E6" width="25" height="25"/>
		
			<rect x="708.089" y="1559.452" transform="matrix(-0.7071 0.7071 -0.7071 -0.7071 2341.6602 2173.9568)" fill="#C1272D" width="25" height="25"/>
		
			<rect x="725.767" y="1541.774" transform="matrix(-0.7071 0.7071 -0.7071 -0.7071 2359.3379 2131.2791)" fill="#E6E6E6" width="25" height="25"/>
		
			<rect x="743.444" y="1524.097" transform="matrix(-0.7071 0.7071 -0.7071 -0.7071 2377.0156 2088.6013)" fill="#C1272D" width="25" height="25"/>
		
			<rect x="761.122" y="1506.419" transform="matrix(-0.7071 0.7071 -0.7071 -0.7071 2394.6934 2045.9233)" fill="#E6E6E6" width="25" height="25"/>
		
			<rect x="778.8" y="1488.741" transform="matrix(-0.7071 0.7071 -0.7071 -0.7071 2412.3711 2003.2456)" fill="#C1272D" width="25" height="25"/>
		
			<rect x="796.477" y="1471.064" transform="matrix(-0.7071 0.7071 -0.7071 -0.7071 2430.0483 1960.5679)" fill="#E6E6E6" width="25" height="25"/>
		
			<rect x="663.732" y="1443.04" transform="matrix(-0.7071 0.7071 -0.7071 -0.7071 2193.7974 1987.7238)" fill="#E6E6E6" width="43" height="10.335"/>
	</g>
	<g>
		<path fill="#4D4D4D" d="M669.42,1617.104c-44.258,44.803-107.703,71.074-170.643,70.681
			c-62.939,0.393-126.384-25.88-170.642-70.682l141.421-141.422c15.047,16.032,43.394,16.033,58.441,0L669.42,1617.104z"/>
		<path fill="#C1272D" d="M475.813,1481.024c-2.23-1.491-4.346-3.217-6.373-5.226l17.678-17.678
			c0.895,0.876,1.744,1.555,2.606,2.132L475.813,1481.024z"/>
		<path fill="#E6E6E6" d="M528.117,1475.799c-2.028,2.009-4.143,3.734-6.372,5.226l-13.912-20.772
			c0.862-0.575,1.71-1.255,2.605-2.131L528.117,1475.799z"/>
		<path fill="#C1272D" d="M521.745,1481.024c-2.23,1.489-4.576,2.744-7.046,3.768l-9.558-23.099
			c0.948-0.396,1.829-0.868,2.692-1.441L521.745,1481.024z"/>
		<path fill="#E6E6E6" d="M514.699,1484.792c-2.468,1.023-5.06,1.812-7.735,2.346l-4.856-24.524c1.072-0.216,2.087-0.529,3.034-0.92
			L514.699,1484.792z"/>
		<path fill="#C1272D" d="M506.964,1487.138c-2.673,0.533-5.429,0.808-8.186,0.813v-25c1.131-0.004,2.259-0.121,3.329-0.338
			L506.964,1487.138z"/>
		<path fill="#E6E6E6" d="M498.778,1487.951c-2.757-0.005-5.512-0.28-8.186-0.813l4.855-24.524c1.071,0.217,2.2,0.334,3.331,0.338
			V1487.951z"/>
		<path fill="#C1272D" d="M490.593,1487.138c-2.674-0.532-5.266-1.321-7.736-2.346l9.56-23.1c0.946,0.394,1.96,0.706,3.031,0.921
			L490.593,1487.138z"/>
		<path fill="#E6E6E6" d="M482.857,1484.792c-2.469-1.022-4.815-2.278-7.043-3.768l13.911-20.771
			c0.862,0.573,1.744,1.045,2.692,1.439L482.857,1484.792z"/>
		<path fill="#C1272D" d="M632.94,1647.063c13.156-8.803,25.401-18.894,36.482-29.96l17.678,17.678
			c-12.212,12.198-25.726,23.336-40.247,33.054L632.94,1647.063z"/>
		<path fill="#E6E6E6" d="M328.136,1617.104c11.079,11.064,23.325,21.156,36.48,29.96l-13.911,20.771
			c-14.522-9.718-28.037-20.855-40.249-33.056L328.136,1617.104z"/>
		<path fill="#C1272D" d="M364.617,1647.063c13.151,8.808,27.207,16.327,41.839,22.381l-9.559,23.101
			c-16.154-6.683-31.673-14.987-46.191-24.71L364.617,1647.063z"/>
		<path fill="#E6E6E6" d="M406.456,1669.444c14.635,6.059,29.845,10.655,45.327,13.722l-4.854,24.524
			c-17.085-3.383-33.874-8.457-50.031-15.146L406.456,1669.444z"/>
		<path fill="#C1272D" d="M451.783,1683.166c15.484,3.07,31.24,4.616,46.997,4.62l-0.002,24.999
			c-17.381-0.004-34.764-1.707-51.85-5.095L451.783,1683.166z"/>
		<path fill="#E6E6E6" d="M498.78,1687.786c15.754-0.005,31.51-1.55,46.995-4.618l4.854,24.523
			c-17.085,3.388-34.468,5.09-51.85,5.095V1687.786z"/>
		<path fill="#C1272D" d="M545.775,1683.168c15.481-3.068,30.693-7.665,45.327-13.723l9.558,23.102
			c-16.156,6.687-32.945,11.76-50.03,15.145L545.775,1683.168z"/>
		<path fill="#E6E6E6" d="M591.102,1669.445c14.634-6.055,28.688-13.573,41.838-22.382l13.913,20.771
			c-14.52,9.725-30.037,18.027-46.193,24.712L591.102,1669.445z"/>
		<path fill="#E6E6E6" d="M474.165,1590.839c16.251,2.799,32.976,2.799,49.227,0l-1.729-10.188
			c-15.106,2.605-30.662,2.604-45.769,0.001L474.165,1590.839z"/>
	</g>
</g>
</svg>
