<?xml version="1.0" encoding="utf-8"?>
<!-- Generator: Adobe Illustrator 14.0.0, SVG Export Plug-In . SVG Version: 6.00 Build 43363)  -->
<!DOCTYPE svg PUBLIC "-//W3C//DTD SVG 1.1//EN" "http://www.w3.org/Graphics/SVG/1.1/DTD/svg11.dtd">
<svg version="1.1" id="Layer_1" xmlns="http://www.w3.org/2000/svg" xmlns:xlink="http://www.w3.org/1999/xlink" x="0px" y="0px"
	 width="1324px" height="1325.525px" viewBox="0 0 1324 1325.525" enable-background="new 0 0 1324 1325.525" xml:space="preserve">
<g>
	<path fill="#4D4D4D" d="M600.513,1134.09c-67.255-66.678-106.22-160.688-105.854-255.394l200-0.044
		c-0.162,42.262,17.229,84.229,47.243,113.983L600.513,1134.09z"/>
	<path fill="#C1272D" d="M695.277,894.473c-0.458-5.264-0.708-10.531-0.784-15.819l24.999-0.005
		c0.077,4.471,0.287,8.922,0.665,13.369L695.277,894.473z"/>
	<path fill="#E6E6E6" d="M741.785,992.755c-3.688-3.792-7.237-7.692-10.639-11.737l19.321-15.863c2.88,3.412,5.881,6.707,8.989,9.92
		L741.785,992.755z"/>
	<path fill="#C1272D" d="M731.146,981.018c-3.302-4.125-6.444-8.355-9.434-12.715l20.784-13.894
		c2.533,3.677,5.188,7.251,7.971,10.744L731.146,981.018z"/>
	<path fill="#E6E6E6" d="M721.715,968.303c-2.885-4.427-5.595-8.951-8.146-13.58l22.045-11.789
		c2.166,3.906,4.455,7.729,6.885,11.477L721.715,968.303z"/>
	<path fill="#C1272D" d="M713.569,954.723c-2.438-4.688-4.689-9.46-6.779-14.314l23.095-9.572c1.776,4.1,3.68,8.13,5.729,12.1
		L713.569,954.723z"/>
	<path fill="#E6E6E6" d="M706.79,940.407c-1.958-4.91-3.741-9.875-5.336-14.914l23.921-7.263c1.358,4.256,2.865,8.449,4.51,12.604
		L706.79,940.407z"/>
	<path fill="#C1272D" d="M701.454,925.493c-1.472-5.076-2.757-10.191-3.852-15.36l24.521-4.883c0.934,4.366,2.02,8.688,3.252,12.98
		L701.454,925.493z"/>
	<path fill="#E6E6E6" d="M697.604,910.133c-0.97-5.191-1.74-10.409-2.325-15.66l24.88-2.456c0.504,4.438,1.155,8.844,1.966,13.232
		L697.604,910.133z"/>
	<path fill="#C1272D" d="M576.707,1107.831c7.552,9.101,15.499,17.85,23.806,26.26l-17.674,17.684
		c-8.884-8.988-17.382-18.346-25.453-28.077L576.707,1107.831z"/>
	<path fill="#E6E6E6" d="M494.658,878.696c0.079,11.819,0.648,23.626,1.751,35.399l-24.879,2.456
		c-1.183-12.589-1.793-25.214-1.872-37.852L494.658,878.696z"/>
	<path fill="#C1272D" d="M496.409,914.097c1.228,11.763,2.963,23.457,5.21,35.067l-24.521,4.883
		c-2.405-12.413-4.262-24.919-5.568-37.495L496.409,914.097z"/>
	<path fill="#E6E6E6" d="M501.619,949.165c2.371,11.584,5.249,23.052,8.62,34.385l-23.922,7.263
		c-3.609-12.114-6.688-24.378-9.219-36.766L501.619,949.165z"/>
	<path fill="#C1272D" d="M510.239,983.55c3.495,11.295,7.482,22.422,11.943,33.371l-23.095,9.572
		c-4.772-11.704-9.04-23.604-12.771-35.683L510.239,983.55z"/>
	<path fill="#E6E6E6" d="M522.185,1016.922c4.595,10.896,9.646,21.581,15.164,32.037l-22.044,11.789
		c-5.905-11.177-11.31-22.604-16.215-34.254L522.185,1016.922z"/>
	<path fill="#C1272D" d="M537.349,1048.959c5.638,10.395,11.714,20.535,18.233,30.401l-20.784,13.894
		c-6.975-10.546-13.474-21.389-19.493-32.505L537.349,1048.959z"/>
	<path fill="#E6E6E6" d="M555.582,1079.36c6.625,9.796,13.672,19.29,21.125,28.471l-19.321,15.865
		c-7.972-9.813-15.509-19.966-22.588-30.442L555.582,1079.36z"/>
	<path fill="#E6E6E6" d="M602.125,959.476c4.49,14.306,10.255,28.209,17.199,41.496l9.179-4.747
		c-6.678-12.771-12.219-26.138-16.532-39.887L602.125,959.476z"/>
</g>
<g>
	<path fill="#4D4D4D" d="M855.224,1239.039c-94.704,0.408-188.731-38.516-255.439-105.74l141.391-141.453
		c29.771,29.999,71.744,47.375,114.006,47.194L855.224,1239.039z"/>
	<path fill="#C1272D" d="M752.798,1002.596c-4.046-3.396-7.948-6.945-11.742-10.633l17.675-17.681
		c3.217,3.104,6.513,6.104,9.926,8.982L752.798,1002.596z"/>
	<path fill="#E6E6E6" d="M855.18,1039.206c-5.288-0.075-10.558-0.322-15.819-0.778l2.442-24.881c4.449,0.376,8.9,0.584,13.371,0.658
		L855.18,1039.206z"/>
	<path fill="#C1272D" d="M839.358,1038.428c-5.251-0.583-10.47-1.352-15.661-2.319l4.873-24.521c4.391,0.81,8.796,1.459,13.23,1.961
		L839.358,1038.428z"/>
	<path fill="#E6E6E6" d="M823.697,1036.107c-5.17-1.09-10.285-2.373-15.361-3.844l7.252-23.924c4.294,1.23,8.615,2.314,12.982,3.245
		L823.697,1036.107z"/>
	<path fill="#C1272D" d="M808.336,1032.265c-5.04-1.593-10.006-3.374-14.917-5.329l9.562-23.099
		c4.153,1.645,8.35,3.147,12.605,4.504L808.336,1032.265z"/>
	<path fill="#E6E6E6" d="M793.419,1026.936c-4.856-2.088-9.628-4.337-14.319-6.771l11.779-22.05
		c3.97,2.049,8.002,3.949,12.102,5.724L793.419,1026.936z"/>
	<path fill="#C1272D" d="M779.1,1020.163c-4.63-2.549-9.153-5.257-13.583-8.139l13.887-20.79c3.747,2.427,7.568,4.715,11.478,6.879
		L779.1,1020.163z"/>
	<path fill="#E6E6E6" d="M765.517,1012.023c-4.356-2.987-8.593-6.131-12.719-9.43l15.856-19.329
		c3.493,2.78,7.066,5.438,10.747,7.969L765.517,1012.023z"/>
	<path fill="#C1272D" d="M819.822,1237.304c11.773,1.098,23.582,1.663,35.4,1.736l0.008,25c-12.64-0.074-25.265-0.681-37.854-1.855
		L819.822,1237.304z"/>
	<path fill="#E6E6E6" d="M599.782,1133.299c8.415,8.303,17.167,16.246,26.271,23.794l-15.854,19.329
		c-9.736-8.067-19.099-16.562-28.089-25.441L599.782,1133.299z"/>
	<path fill="#C1272D" d="M626.053,1157.093c9.187,7.448,18.684,14.492,28.48,21.112l-13.885,20.79
		c-10.479-7.074-20.636-14.606-30.451-22.573L626.053,1157.093z"/>
	<path fill="#E6E6E6" d="M654.533,1178.205c9.868,6.516,20.012,12.589,30.41,18.219l-11.78,22.051
		c-11.119-6.015-21.965-12.51-32.515-19.479L654.533,1178.205z"/>
	<path fill="#C1272D" d="M684.943,1196.424c10.458,5.516,21.146,10.562,32.043,15.15l-9.562,23.1
		c-11.652-4.9-23.082-10.298-34.262-16.199L684.943,1196.424z"/>
	<path fill="#E6E6E6" d="M716.987,1211.575c10.95,4.455,22.079,8.438,33.376,11.931l-7.251,23.924
		c-12.081-3.727-23.981-7.984-35.688-12.756L716.987,1211.575z"/>
	<path fill="#C1272D" d="M750.363,1223.506c11.335,3.365,22.804,6.238,34.39,8.604l-4.872,24.521
		c-12.39-2.525-24.65-5.597-36.769-9.201L750.363,1223.506z"/>
	<path fill="#E6E6E6" d="M784.753,1232.109c11.612,2.241,23.308,3.974,35.069,5.192l-2.444,24.881
		c-12.575-1.303-25.083-3.149-37.497-5.554L784.753,1232.109z"/>
	<path fill="#E6E6E6" d="M732.893,1114.428c13.29,6.939,27.199,12.696,41.506,17.182l3.134-9.849
		c-13.752-4.309-27.122-9.842-39.896-16.514L732.893,1114.428z"/>
</g>
<g>
	<rect x="795.557" y="81.921" fill="#4D4D4D" width="249.832" height="249.832"/>
	<rect x="915.307" y="185.336" fill="#E6E6E6" width="10.334" height="43"/>
	<g>
		<rect x="1020.307" y="306.754" fill="#E6E6E6" width="25" height="25"/>
		<g>
			<polygon fill="#C1272D" points="1045.475,331.754 1045.475,331.753 1045.473,331.754 			"/>
			<polygon fill="#C1272D" points="1045.475,331.753 1045.475,306.753 1020.475,306.753 1020.475,306.754 			"/>
		</g>
	</g>
	<g>
		<rect x="795.641" y="306.67" fill="#E6E6E6" width="25" height="25"/>
		<g>
			<polygon fill="#C1272D" points="795.641,331.837 795.641,331.837 795.641,331.836 			"/>
			<polygon fill="#C1272D" points="795.641,331.837 820.641,331.837 820.641,306.837 820.641,306.837 			"/>
		</g>
	</g>
	<g>
		<rect x="1020.309" y="82.003" fill="#E6E6E6" width="25" height="25"/>
		<g>
			<polygon fill="#C1272D" points="1045.309,81.836 1045.307,81.836 1045.309,81.837 			"/>
			<polygon fill="#C1272D" points="1045.307,81.836 1020.307,81.836 1020.307,106.836 1020.309,106.836 			"/>
		</g>
	</g>
	<g>
		<rect x="795.725" y="82.003" fill="#E6E6E6" width="25" height="25"/>
		<g>
			<polygon fill="#C1272D" points="795.557,82.002 795.557,82.004 795.559,82.002 			"/>
			<polygon fill="#C1272D" points="795.557,82.004 795.557,107.003 820.557,107.003 820.557,107.003 			"/>
		</g>
	</g>
	<rect x="898.973" y="201.667" fill="#E6E6E6" width="43" height="10.334"/>
</g>
<g>
	<rect x="52.86" y="637.806" fill="#4D4D4D" width="200.001" height="200"/>
	<rect x="52.862" y="625.472" fill="#C1272D" width="25" height="12.5"/>
	<rect x="227.861" y="625.472" fill="#E6E6E6" width="25" height="12.5"/>
	<rect x="202.861" y="625.472" fill="#C1272D" width="25" height="12.5"/>
	<rect x="177.86" y="625.472" fill="#E6E6E6" width="25.001" height="12.5"/>
	<rect x="152.86" y="625.472" fill="#C1272D" width="25" height="12.5"/>
	<rect x="127.861" y="625.472" fill="#E6E6E6" width="25" height="12.5"/>
	<rect x="102.862" y="625.472" fill="#C1272D" width="24.998" height="12.5"/>
	<rect x="77.862" y="625.472" fill="#E6E6E6" width="25" height="12.5"/>
	<rect x="227.861" y="837.805" fill="#C1272D" width="25" height="12.5"/>
	<rect x="52.86" y="837.805" fill="#E6E6E6" width="25" height="12.5"/>
	<rect x="77.86" y="837.805" fill="#C1272D" width="25.002" height="12.5"/>
	<rect x="102.862" y="837.805" fill="#E6E6E6" width="25" height="12.5"/>
	<rect x="127.862" y="837.805" fill="#C1272D" width="25" height="12.5"/>
	<rect x="152.862" y="837.805" fill="#E6E6E6" width="25" height="12.5"/>
	<rect x="177.862" y="837.806" fill="#C1272D" width="24.999" height="12.499"/>
	<rect x="202.861" y="837.806" fill="#E6E6E6" width="25" height="12.5"/>
	<rect x="131.36" y="732.638" fill="#E6E6E6" width="43" height="10.334"/>
</g>
<path fill="#C1272D" d="M452.862,612.972c0,25,0,25,0,25"/>
<g>
	<rect x="252.861" y="637.889" fill="#4D4D4D" width="200" height="200"/>
	<rect x="331.361" y="732.638" fill="#E6E6E6" width="43" height="10.334"/>
	<g>
		<g>
			<g>
				<defs>
					<path id="SVGID_1_" d="M452.862,612.972v25h-200c0,0-0.002-2.062-0.002-12.5c15.546,0,33.203,0,50.002,0
						c16.799,0,93.472-12.5,124.999-12.5H452.862z"/>
				</defs>
				<clipPath id="SVGID_2_">
					<use xlink:href="#SVGID_1_"  overflow="visible"/>
				</clipPath>
				<g clip-path="url(#SVGID_2_)">
					<rect x="252.862" y="612.972" fill="#C1272D" width="25" height="25"/>
					<rect x="427.861" y="612.972" fill="#E6E6E6" width="25" height="25"/>
					<rect x="402.861" y="612.972" fill="#C1272D" width="25" height="25"/>
					<rect x="377.86" y="612.972" fill="#E6E6E6" width="25.001" height="25"/>
					<rect x="352.86" y="612.972" fill="#C1272D" width="25" height="25"/>
					<rect x="327.861" y="612.972" fill="#E6E6E6" width="25" height="25"/>
					<rect x="302.862" y="612.972" fill="#C1272D" width="24.998" height="25"/>
					<rect x="277.862" y="612.972" fill="#E6E6E6" width="25" height="25"/>
				</g>
			</g>
		</g>
	</g>
	<g>
		<g>
			<g>
				<defs>
					<path id="SVGID_3_" d="M452.862,862.806v-25h-200c0,0-0.002,2.062-0.002,12.5c15.546,0,33.203,0,50.002,0
						c16.799,0,93.472,12.5,124.999,12.5H452.862z"/>
				</defs>
				<clipPath id="SVGID_4_">
					<use xlink:href="#SVGID_3_"  overflow="visible"/>
				</clipPath>
				<g clip-path="url(#SVGID_4_)">
					<rect x="427.86" y="837.806" fill="#C1272D" width="25" height="25"/>
					<rect x="252.861" y="837.806" fill="#E6E6E6" width="25" height="25"/>
					<rect x="277.861" y="837.806" fill="#C1272D" width="25" height="25"/>
					<rect x="302.861" y="837.806" fill="#E6E6E6" width="25.001" height="25"/>
					<rect x="327.862" y="837.806" fill="#C1272D" width="25" height="25"/>
					<rect x="352.861" y="837.806" fill="#E6E6E6" width="25" height="25"/>
					<rect x="377.862" y="837.806" fill="#C1272D" width="24.998" height="25"/>
					<rect x="402.86" y="837.806" fill="#E6E6E6" width="25" height="25"/>
				</g>
			</g>
		</g>
	</g>
</g>
<g>
	<path fill="#4D4D4D" d="M452.93,637.971c62.979-0.385,126.416,25.9,170.645,70.686c44.779,44.228,71.064,107.666,70.682,170.642
		h-200c0.695-21.977-19.348-42.021-41.324-41.324L452.93,637.971L452.93,637.971z"/>
	<path fill="#C1272D" d="M493.607,871.095c0.521,2.631,0.799,5.35,0.812,8.201h-25c-0.014-1.252-0.135-2.332-0.336-3.35
		L493.607,871.095z"/>
	<path fill="#E6E6E6" d="M452.93,837.806c2.854,0.016,5.568,0.289,8.199,0.812l-4.852,24.523c-1.018-0.201-2.098-0.32-3.35-0.336
		L452.93,837.806L452.93,837.806z"/>
	<path fill="#C1272D" d="M461.129,838.617c2.631,0.521,5.176,1.295,7.646,2.315l-9.574,23.095c-0.951-0.393-1.908-0.682-2.924-0.887
		L461.129,838.617z"/>
	<path fill="#E6E6E6" d="M468.775,840.934c2.469,1.022,4.857,2.299,7.129,3.812l-13.908,20.775c-0.91-0.605-1.85-1.104-2.795-1.494
		L468.775,840.934z"/>
	<path fill="#C1272D" d="M475.904,844.746c2.268,1.514,4.41,3.267,6.361,5.213l-17.678,17.678c-0.803-0.797-1.684-1.512-2.594-2.115
		L475.904,844.746z"/>
	<path fill="#E6E6E6" d="M482.268,849.958c1.945,1.953,3.699,4.096,5.215,6.363l-20.775,13.906
		c-0.604-0.908-1.318-1.791-2.115-2.594L482.268,849.958z"/>
	<path fill="#C1272D" d="M487.48,856.322c1.514,2.268,2.787,4.658,3.811,7.129l-23.094,9.574c-0.393-0.947-0.889-1.887-1.492-2.795
		L487.48,856.322z"/>
	<path fill="#E6E6E6" d="M491.291,863.451c1.023,2.469,1.795,5.016,2.316,7.645l-24.523,4.854c-0.205-1.018-0.494-1.975-0.887-2.922
		L491.291,863.451z"/>
	<path fill="#C1272D" d="M499.91,642.583c-15.527-3.077-31.322-4.601-46.982-4.611v-24.999c17.264,0.011,34.693,1.688,51.832,5.085
		L499.91,642.583z"/>
	<path fill="#E6E6E6" d="M694.254,879.296c-0.01-15.658-1.533-31.453-4.611-46.979l24.525-4.854
		c3.397,17.143,5.077,34.572,5.087,51.834L694.254,879.296z"/>
	<path fill="#C1272D" d="M689.643,832.316c-3.068-15.528-7.689-30.783-13.758-45.411l23.094-9.576
		c6.697,16.147,11.801,32.994,15.189,50.136L689.643,832.316z"/>
	<path fill="#E6E6E6" d="M675.885,786.905c-6.062-14.632-13.568-28.64-22.35-41.754l20.775-13.908
		c9.688,14.474,17.973,29.933,24.668,46.086L675.885,786.905z"/>
	<path fill="#C1272D" d="M653.535,745.151c-8.777-13.119-18.826-25.354-29.965-36.497l17.68-17.679
		c12.287,12.294,23.373,25.789,33.061,40.268L653.535,745.151z"/>
	<path fill="#E6E6E6" d="M623.57,708.654c-11.145-11.14-23.377-21.188-36.496-29.965l13.908-20.774
		c14.477,9.687,27.973,20.774,40.266,33.062L623.57,708.654z"/>
	<path fill="#C1272D" d="M587.074,678.689c-13.115-8.778-27.123-16.284-41.754-22.35l9.574-23.094
		c16.152,6.695,31.611,14.979,46.088,24.667L587.074,678.689z"/>
	<path fill="#E6E6E6" d="M545.32,656.341c-14.629-6.065-29.883-10.688-45.41-13.759l4.85-24.525
		c17.145,3.393,33.986,8.493,50.139,15.19L545.32,656.341z"/>
	<path fill="#E6E6E6" d="M572.424,794.61c-9.512-13.473-21.338-25.296-34.809-34.811l-5.98,8.426
		c12.523,8.843,23.523,19.843,32.363,32.364L572.424,794.61z"/>
</g>
<g>
	<rect x="856.231" y="1039.843" fill="#4D4D4D" width="199.999" height="200"/>
	<rect x="934.731" y="1134.759" fill="#E6E6E6" width="43" height="10.334"/>
	<g>
		<g>
			<g>
				<defs>
					<path id="SVGID_5_" d="M856.23,1264.759v-25h199.998c0,0,0.002,2.062,0.002,12.5c-15.547,0-33.202,0-50.003,0
						c-16.799,0-93.472,12.5-124.999,12.5H856.23z"/>
				</defs>
				<clipPath id="SVGID_6_">
					<use xlink:href="#SVGID_5_"  overflow="visible"/>
				</clipPath>
				<g clip-path="url(#SVGID_6_)">
					<rect x="1031.23" y="1239.759" fill="#C1272D" width="25" height="25"/>
					<rect x="856.231" y="1239.759" fill="#E6E6E6" width="25" height="25"/>
					<rect x="881.231" y="1239.759" fill="#C1272D" width="25" height="25"/>
					<rect x="906.231" y="1239.759" fill="#E6E6E6" width="25.001" height="25"/>
					<rect x="931.232" y="1239.759" fill="#C1272D" width="25" height="25"/>
					<rect x="956.231" y="1239.759" fill="#E6E6E6" width="25" height="25"/>
					<rect x="981.232" y="1239.759" fill="#C1272D" width="24.998" height="25"/>
					<rect x="1006.23" y="1239.759" fill="#E6E6E6" width="25" height="25"/>
				</g>
			</g>
		</g>
	</g>
	<g>
		<g>
			<g>
				<defs>
					<path id="SVGID_7_" d="M856.23,1014.926v25h199.998c0,0,0.002-2.062,0.002-12.5c-15.547,0-33.202,0-50.003,0
						c-16.799,0-93.472-12.5-124.999-12.5H856.23z"/>
				</defs>
				<clipPath id="SVGID_8_">
					<use xlink:href="#SVGID_7_"  overflow="visible"/>
				</clipPath>
				<g clip-path="url(#SVGID_8_)">
					<rect x="856.232" y="1014.926" fill="#C1272D" width="25" height="25"/>
					<rect x="1031.23" y="1014.926" fill="#E6E6E6" width="25" height="25"/>
					<rect x="1006.231" y="1014.926" fill="#C1272D" width="24.999" height="25"/>
					<rect x="981.23" y="1014.926" fill="#E6E6E6" width="25" height="25"/>
					<rect x="956.23" y="1014.926" fill="#C1272D" width="25" height="25"/>
					<rect x="931.231" y="1014.926" fill="#E6E6E6" width="25" height="25"/>
					<rect x="906.232" y="1014.926" fill="#C1272D" width="24.998" height="25"/>
					<rect x="881.232" y="1014.926" fill="#E6E6E6" width="25" height="25"/>
				</g>
			</g>
		</g>
	</g>
</g>
<g>
	<rect x="1047.476" y="106.834" fill="#4D4D4D" width="200" height="200"/>
	<rect x="1125.976" y="201.751" fill="#E6E6E6" width="43" height="10.334"/>
	<g>
		<g>
			<g>
				<defs>
					<path id="SVGID_9_" d="M1047.475,331.751v-25h199.999c0,0,0.002,2.062,0.002,12.5c-15.546,0-33.202,0-50.002,0
						c-16.799,0-93.472,12.5-124.999,12.5H1047.475z"/>
				</defs>
				<clipPath id="SVGID_10_">
					<use xlink:href="#SVGID_9_"  overflow="visible"/>
				</clipPath>
				<g clip-path="url(#SVGID_10_)">
					<rect x="1222.475" y="306.751" fill="#C1272D" width="25" height="25"/>
					<rect x="1047.476" y="306.751" fill="#E6E6E6" width="25" height="25"/>
					<rect x="1072.476" y="306.751" fill="#C1272D" width="25" height="25"/>
					<rect x="1097.476" y="306.751" fill="#E6E6E6" width="25.001" height="25"/>
					<rect x="1122.477" y="306.751" fill="#C1272D" width="25" height="25"/>
					<rect x="1147.476" y="306.751" fill="#E6E6E6" width="25" height="25"/>
					<rect x="1172.477" y="306.751" fill="#C1272D" width="24.998" height="25"/>
					<rect x="1197.475" y="306.751" fill="#E6E6E6" width="25" height="25"/>
				</g>
			</g>
		</g>
	</g>
	<g>
		<g>
			<g>
				<defs>
					<path id="SVGID_11_" d="M1047.475,81.917v25h199.999c0,0,0.002-2.062,0.002-12.5c-15.546,0-33.202,0-50.002,0
						c-16.799,0-93.472-12.5-124.999-12.5H1047.475z"/>
				</defs>
				<clipPath id="SVGID_12_">
					<use xlink:href="#SVGID_11_"  overflow="visible"/>
				</clipPath>
				<g clip-path="url(#SVGID_12_)">
					<rect x="1047.477" y="81.917" fill="#C1272D" width="25" height="25"/>
					<rect x="1222.476" y="81.917" fill="#E6E6E6" width="25" height="25"/>
					<rect x="1197.476" y="81.917" fill="#C1272D" width="25" height="25"/>
					<rect x="1172.475" y="81.917" fill="#E6E6E6" width="25.001" height="25"/>
					<rect x="1147.475" y="81.917" fill="#C1272D" width="25" height="25"/>
					<rect x="1122.476" y="81.917" fill="#E6E6E6" width="25" height="25"/>
					<rect x="1097.477" y="81.917" fill="#C1272D" width="24.998" height="25"/>
					<rect x="1072.477" y="81.917" fill="#E6E6E6" width="25" height="25"/>
				</g>
			</g>
		</g>
	</g>
</g>
<g>
	<rect x="820.517" y="331.671" fill="#4D4D4D" width="199.999" height="200"/>
	<rect x="915.266" y="410.171" fill="#E6E6E6" width="10.334" height="43"/>
	<g>
		<g>
			<g>
				<defs>
					<path id="SVGID_13_" d="M795.6,331.67h25v199.999c0,0-2.062,0.002-12.5,0.002c0-15.546,0-33.203,0-50.002
						s-12.5-93.472-12.5-124.999V331.67z"/>
				</defs>
				<clipPath id="SVGID_14_">
					<use xlink:href="#SVGID_13_"  overflow="visible"/>
				</clipPath>
				<g clip-path="url(#SVGID_14_)">
					<rect x="795.6" y="506.67" fill="#C1272D" width="25" height="25"/>
					<rect x="795.6" y="331.671" fill="#E6E6E6" width="25" height="25"/>
					<rect x="795.6" y="356.671" fill="#C1272D" width="25" height="25"/>
					<rect x="795.6" y="381.671" fill="#E6E6E6" width="25" height="25.001"/>
					<rect x="795.6" y="406.672" fill="#C1272D" width="25" height="25"/>
					<rect x="795.6" y="431.671" fill="#E6E6E6" width="25" height="25"/>
					<rect x="795.6" y="456.672" fill="#C1272D" width="25" height="24.998"/>
					<rect x="795.6" y="481.67" fill="#E6E6E6" width="25" height="25"/>
				</g>
			</g>
		</g>
	</g>
	<g>
		<g>
			<g>
				<defs>
					<path id="SVGID_15_" d="M1045.433,331.67h-25v199.999c0,0,2.062,0.002,12.5,0.002c0-15.546,0-33.203,0-50.002
						s12.5-93.472,12.5-124.999V331.67z"/>
				</defs>
				<clipPath id="SVGID_16_">
					<use xlink:href="#SVGID_15_"  overflow="visible"/>
				</clipPath>
				<g clip-path="url(#SVGID_16_)">
					<rect x="1020.433" y="331.672" fill="#C1272D" width="25" height="25"/>
					<rect x="1020.433" y="506.671" fill="#E6E6E6" width="25" height="25"/>
					<rect x="1020.433" y="481.671" fill="#C1272D" width="25" height="25"/>
					<rect x="1020.433" y="456.67" fill="#E6E6E6" width="25" height="25.001"/>
					<rect x="1020.433" y="431.67" fill="#C1272D" width="25" height="25"/>
					<rect x="1020.433" y="406.671" fill="#E6E6E6" width="25" height="25"/>
					<rect x="1020.433" y="381.672" fill="#C1272D" width="25" height="24.998"/>
					<rect x="1020.433" y="356.672" fill="#E6E6E6" width="25" height="25"/>
				</g>
			</g>
		</g>
	</g>
</g>
<g>
	<rect x="594.026" y="107.004" fill="#4D4D4D" width="200" height="199.999"/>
	<rect x="672.526" y="201.753" fill="#E6E6E6" width="43" height="10.334"/>
	<g>
		<g>
			<g>
				<defs>
					<path id="SVGID_17_" d="M794.027,82.087v25H594.028c0,0-0.002-2.062-0.002-12.5c15.546,0,33.202,0,50.002,0
						c16.799,0,93.472-12.5,124.999-12.5H794.027z"/>
				</defs>
				<clipPath id="SVGID_18_">
					<use xlink:href="#SVGID_17_"  overflow="visible"/>
				</clipPath>
				<g clip-path="url(#SVGID_18_)">
					<rect x="594.027" y="82.087" fill="#C1272D" width="25" height="25"/>
					<rect x="769.026" y="82.087" fill="#E6E6E6" width="25" height="25"/>
					<rect x="744.026" y="82.087" fill="#C1272D" width="25" height="25"/>
					<rect x="719.025" y="82.087" fill="#E6E6E6" width="25.001" height="25"/>
					<rect x="694.025" y="82.087" fill="#C1272D" width="25" height="25"/>
					<rect x="669.026" y="82.087" fill="#E6E6E6" width="25" height="25"/>
					<rect x="644.027" y="82.087" fill="#C1272D" width="24.998" height="25"/>
					<rect x="619.027" y="82.087" fill="#E6E6E6" width="25" height="25"/>
				</g>
			</g>
		</g>
	</g>
	<g>
		<g>
			<g>
				<defs>
					<path id="SVGID_19_" d="M794.027,331.92v-25H594.028c0,0-0.002,2.062-0.002,12.5c15.546,0,33.202,0,50.002,0
						c16.799,0,93.472,12.5,124.999,12.5H794.027z"/>
				</defs>
				<clipPath id="SVGID_20_">
					<use xlink:href="#SVGID_19_"  overflow="visible"/>
				</clipPath>
				<g clip-path="url(#SVGID_20_)">
					<rect x="769.025" y="306.92" fill="#C1272D" width="25" height="25"/>
					<rect x="594.026" y="306.92" fill="#E6E6E6" width="25" height="25"/>
					<rect x="619.026" y="306.92" fill="#C1272D" width="25" height="25"/>
					<rect x="644.026" y="306.92" fill="#E6E6E6" width="25.001" height="25"/>
					<rect x="669.027" y="306.92" fill="#C1272D" width="25" height="25"/>
					<rect x="694.026" y="306.92" fill="#E6E6E6" width="25" height="25"/>
					<rect x="719.027" y="306.92" fill="#C1272D" width="24.998" height="25"/>
					<rect x="744.025" y="306.92" fill="#E6E6E6" width="25" height="25"/>
				</g>
			</g>
		</g>
	</g>
</g>
<g>
	<rect x="820.517" y="733.672" fill="#4D4D4D" width="199.999" height="200"/>
	<rect x="915.433" y="812.172" fill="#E6E6E6" width="10.334" height="43"/>
	<g>
		<g>
			<g>
				<defs>
					<path id="SVGID_21_" d="M1045.433,933.673h-25V733.674c0,0,2.062-0.002,12.5-0.002c0,15.546,0,33.203,0,50.002
						s12.5,93.474,12.5,124.999V933.673z"/>
				</defs>
				<clipPath id="SVGID_22_">
					<use xlink:href="#SVGID_21_"  overflow="visible"/>
				</clipPath>
				<g clip-path="url(#SVGID_22_)">
					<rect x="1020.433" y="733.673" fill="#C1272D" width="25" height="25"/>
					<rect x="1020.433" y="908.672" fill="#E6E6E6" width="25" height="25"/>
					<rect x="1020.433" y="883.672" fill="#C1272D" width="25" height="25"/>
					<rect x="1020.433" y="858.671" fill="#E6E6E6" width="25" height="25.001"/>
					<rect x="1020.433" y="833.671" fill="#C1272D" width="25" height="25"/>
					<rect x="1020.433" y="808.672" fill="#E6E6E6" width="25" height="25"/>
					<rect x="1020.433" y="783.673" fill="#C1272D" width="25" height="24.998"/>
					<rect x="1020.433" y="758.673" fill="#E6E6E6" width="25" height="25"/>
				</g>
			</g>
		</g>
	</g>
	<g>
		<g>
			<g>
				<defs>
					<path id="SVGID_23_" d="M795.6,933.673h25V733.674c0,0-2.062-0.002-12.5-0.002c0,15.546,0,33.203,0,50.002
						s-12.5,93.474-12.5,124.999V933.673z"/>
				</defs>
				<clipPath id="SVGID_24_">
					<use xlink:href="#SVGID_23_"  overflow="visible"/>
				</clipPath>
				<g clip-path="url(#SVGID_24_)">
					<rect x="795.6" y="908.671" fill="#C1272D" width="25" height="25"/>
					<rect x="795.6" y="733.672" fill="#E6E6E6" width="25" height="25"/>
					<rect x="795.6" y="758.672" fill="#C1272D" width="25" height="25"/>
					<rect x="795.6" y="783.672" fill="#E6E6E6" width="25" height="25.001"/>
					<rect x="795.6" y="808.673" fill="#C1272D" width="25" height="25"/>
					<rect x="795.6" y="833.672" fill="#E6E6E6" width="25" height="25"/>
					<rect x="795.6" y="858.673" fill="#C1272D" width="25" height="24.998"/>
					<rect x="795.6" y="883.671" fill="#E6E6E6" width="25" height="25"/>
				</g>
			</g>
		</g>
	</g>
</g>
<g>
	<rect x="820.434" y="532.671" fill="#4D4D4D" width="199.999" height="200.001"/>
	<rect x="808.1" y="707.67" fill="#C1272D" width="12.5" height="25"/>
	<rect x="808.1" y="532.671" fill="#E6E6E6" width="12.5" height="25"/>
	<rect x="808.1" y="557.671" fill="#C1272D" width="12.5" height="25"/>
	<rect x="808.1" y="582.671" fill="#E6E6E6" width="12.5" height="25.001"/>
	<rect x="808.1" y="607.672" fill="#C1272D" width="12.5" height="25"/>
	<rect x="808.1" y="632.671" fill="#E6E6E6" width="12.5" height="25"/>
	<rect x="808.1" y="657.672" fill="#C1272D" width="12.5" height="24.998"/>
	<rect x="808.1" y="682.67" fill="#E6E6E6" width="12.5" height="25"/>
	<rect x="1020.433" y="532.671" fill="#C1272D" width="12.5" height="25"/>
	<rect x="1020.433" y="707.672" fill="#E6E6E6" width="12.5" height="25"/>
	<rect x="1020.433" y="682.67" fill="#C1272D" width="12.5" height="25.002"/>
	<rect x="1020.433" y="657.67" fill="#E6E6E6" width="12.5" height="25"/>
	<rect x="1020.433" y="632.67" fill="#C1272D" width="12.5" height="25"/>
	<rect x="1020.433" y="607.67" fill="#E6E6E6" width="12.5" height="25"/>
	<rect x="1020.433" y="582.671" fill="#C1272D" width="12.499" height="24.999"/>
	<rect x="1020.433" y="557.671" fill="#E6E6E6" width="12.5" height="25"/>
	<rect x="915.266" y="611.172" fill="#E6E6E6" width="10.334" height="43"/>
</g>
</svg>
